<svg width="267" height="267" viewBox="0 0 267 267" fill="none" xmlns="http://www.w3.org/2000/svg">
<g id="Frame 53">
<rect x="0.675781" y="67.1279" width="210.829" height="209.748" rx="20" transform="rotate(-18.3921 0.675781 67.1279)" fill="white"/>
<rect x="3.83688" y="68.7114" width="205.829" height="204.748" rx="17.5" transform="rotate(-18.3921 3.83688 68.7114)" stroke="rgba(222,44,109,1)" stroke-opacity="0.2" stroke-width="5"/>
<g id="Group 1000006028">
<path id="path8" d="M154.408 146.517C148.383 155.307 137.798 162.425 127.756 165.732C113.675 170.37 99.2233 169.154 86.6798 163.345C85.6941 162.888 86.0527 161.705 87.1377 161.956C99.5405 164.781 113.573 164.317 126.791 159.963C135.706 157.027 144.885 151.887 152.597 144.955C153.762 143.907 155.403 145.055 154.408 146.517Z" fill="#FF9900"/>
<path id="path10" d="M156.852 141.551C155.427 140.582 150.034 143.117 147.612 144.251C146.876 144.6 146.535 143.959 147.066 143.243C150.488 138.572 158.135 137.076 159.344 137.866C160.555 138.662 161.937 146.491 158.907 151.443C158.442 152.203 157.73 152.114 157.779 151.293C157.934 148.588 158.285 142.525 156.852 141.551Z" fill="#FF9900"/>
<path id="path12" d="M139.791 120.2L138.784 117.144C138.632 116.682 138.864 116.262 139.265 116.129L152.285 111.841C152.703 111.704 153.141 111.91 153.291 112.366L154.153 114.983C154.292 115.423 154.13 116.113 153.805 117.225L150.391 129.567C152.877 128.677 155.652 128.198 158.369 128.795C158.982 128.931 159.267 129.33 159.451 129.756L160.525 133.016C160.671 133.461 160.375 134.136 159.796 134.028C155.064 133.141 149.664 134.653 146.049 138.582C145.682 138.988 145.039 138.629 144.893 138.184L143.873 135.088C143.709 134.59 143.435 133.74 143.66 132.829L147.597 118.478L140.795 120.719C140.378 120.856 139.941 120.656 139.791 120.2Z" fill="black"/>
<path id="path14" d="M93.6324 157.161L89.3207 158.581C88.8982 158.686 88.4669 158.479 88.3043 158.087L80.8802 135.546C80.7317 135.095 80.9836 134.615 81.4445 134.463L85.4652 133.139C85.8897 133.02 86.3311 133.237 86.4957 133.635L87.4662 136.582L87.545 136.556C87.6562 133.362 89.1897 131.385 91.8459 130.51C94.5445 129.621 96.6678 130.394 98.8186 132.843C98.9238 129.651 100.857 127.542 103.398 126.705C105.206 126.11 107.433 126.219 109.201 127.526C111.19 128.973 111.819 131.82 112.614 134.236L117.294 148.464C117.442 148.915 117.192 149.401 116.732 149.553L112.426 150.971C111.985 151.082 111.523 150.844 111.381 150.411L107.446 138.464C107.133 137.513 106.437 135.113 105.933 134.279C105.113 132.871 104.009 132.763 102.76 133.174C101.716 133.518 100.859 134.588 100.791 135.87C100.722 137.153 101.391 139.041 101.812 140.32L105.747 152.267C105.896 152.718 105.646 153.204 105.185 153.356L100.879 154.774C100.433 154.887 99.977 154.647 99.8345 154.214L95.8936 142.269C95.0656 139.755 94.2532 135.921 91.1907 136.93C88.0918 137.95 89.4013 141.518 90.2599 144.125L94.1947 156.072C94.3432 156.523 94.0933 157.009 93.6324 157.161Z" fill="black"/>
<path id="path16" d="M165.828 106.143C172.038 104.098 177.208 108.483 179.507 115.466C181.729 122.212 179.778 128.788 173.921 130.717C167.823 132.725 162.695 128.327 160.441 121.483C158.173 114.597 159.771 108.138 165.828 106.143ZM167.351 110.648C164.266 111.663 165.497 116.055 166.386 118.753C167.276 121.456 169.136 127.24 172.42 126.158C175.663 125.09 174.283 120.385 173.349 117.548C172.734 115.681 171.923 113.475 170.792 111.886C169.814 110.501 168.681 110.209 167.351 110.648Z" fill="black"/>
<path id="path18" d="M191.968 124.773L187.637 126.2C187.192 126.312 186.727 126.075 186.585 125.642L179.153 103.097C179.053 102.671 179.308 102.231 179.749 102.086L183.781 100.758C184.166 100.651 184.564 100.808 184.765 101.132L185.901 104.579L185.98 104.553C186.182 101.069 187.405 99.0368 190.409 98.0474C192.361 97.4046 194.498 97.4883 196.362 99.0311C198.094 100.46 199.093 103.493 199.812 105.674L204.485 119.863C204.566 120.275 204.309 120.709 203.881 120.85L199.518 122.286C199.111 122.386 198.683 122.199 198.514 121.83L194.481 109.586C193.669 107.122 192.763 103.421 189.758 104.411C188.7 104.759 187.963 105.796 187.838 107.043C187.68 108.622 188.052 110.019 188.552 111.539L192.55 123.678C192.693 124.131 192.433 124.62 191.968 124.773Z" fill="black"/>
<path id="use28" d="M130.879 132.872L130.572 131.941C127.532 132.942 124.539 134.666 125.746 138.331C126.358 140.187 127.712 141.136 129.327 140.604C130.51 140.214 131.324 139.122 131.594 137.692C131.932 135.931 131.43 134.548 130.879 132.872ZM138.572 141.957C138.378 142.303 137.981 142.453 137.612 142.387C135.826 141.661 135.396 141.193 134.255 140.315C132.74 143.482 131.345 144.739 128.352 145.725C124.815 146.89 121.323 145.566 119.851 141.097C118.702 137.607 119.77 134.62 122.02 132.592C123.965 130.812 127.093 129.58 129.436 128.494L129.253 127.937C128.917 126.915 128.595 125.68 127.719 124.99C126.943 124.367 125.854 124.364 124.99 124.648C123.387 125.176 122.233 126.488 122.457 128.345C122.514 128.756 122.361 129.228 121.989 129.371L117.76 130.268C117.391 130.302 116.919 130.143 116.836 129.573C116.111 124.207 120.075 121.212 124.074 119.895C126.12 119.221 128.977 118.897 131.114 119.95C133.804 121.229 134.467 123.9 135.401 126.737L137.609 133.438C138.272 135.452 139.379 136.066 140.507 136.902C140.906 137.199 141.119 137.645 140.871 138.049C140.255 139.063 139.177 140.926 138.588 141.965L138.572 141.957Z" fill="black"/>
<path id="path30" d="M74.6023 151.408L74.2955 150.476C71.0863 151.533 67.9151 153.315 69.1223 156.981C69.7338 158.837 71.1409 159.768 72.8454 159.207C74.0941 158.796 74.9667 157.684 75.2739 156.242C75.6579 154.466 75.1541 153.083 74.6023 151.408ZM82.5311 160.415C82.3214 160.765 81.9028 160.923 81.5161 160.863C79.6521 160.163 79.2086 159.699 78.0244 158.835C76.3822 162.044 74.896 163.332 71.7367 164.372C68.003 165.602 64.3584 164.329 62.8864 159.859C61.737 156.369 62.9084 153.349 65.3043 151.272C67.3758 149.45 70.6813 148.161 73.1601 147.029L72.9768 146.473C72.6402 145.45 72.3229 144.214 71.414 143.535C70.6098 142.921 69.4658 142.936 68.5543 143.236C66.8622 143.794 65.6281 145.132 65.8335 146.995C65.886 147.407 65.7181 147.885 65.3245 148.034L60.8689 149.006C60.4809 149.046 59.9877 148.894 59.9103 148.322C59.2377 142.939 63.4497 139.863 67.6704 138.472C69.8307 137.761 72.8361 137.388 75.0625 138.411C77.8663 139.653 78.5188 142.328 79.453 145.164L81.6601 151.866C82.3235 153.88 83.4759 154.479 84.6462 155.3C85.0609 155.593 85.2767 156.038 85.0102 156.447C84.3459 157.477 83.1832 159.369 82.5476 160.423L82.5311 160.415Z" fill="black"/>
</g>
</g>
</svg>
