<svg width="130" height="71" viewBox="0 0 130 71" fill="none" xmlns="http://www.w3.org/2000/svg">
<g id="flipkart" clip-path="url(#clip0_1108_244)">
<path id="Vector" d="M120.589 5.49738C120.561 5.45696 120.533 5.41657 120.5 5.37757C110.012 8.82816 99.5263 12.2683 89.043 15.7175C89.0267 15.7575 89.0193 15.7947 89.0281 15.8365C91.7311 24.0638 94.4326 32.2866 97.1311 40.5154C97.3417 40.9324 97.7118 41.2525 98.1292 41.4478C98.144 41.4479 98.1764 41.4421 98.1912 41.4423C98.4124 41.5631 98.675 41.5712 98.9229 41.579C99.0838 41.5163 99.2667 41.5355 99.4247 41.4638L112.442 37.1871C112.565 37.1419 112.7 37.1221 112.804 37.0336C112.802 37.0143 112.796 36.9814 112.795 36.9621C112.792 36.9382 112.78 36.8875 112.776 36.8592C112.537 35.1911 112.287 33.5214 112.066 31.8474L112.027 31.6372C110.821 32.0283 109.613 32.43 108.408 32.8211C108.113 32.9082 107.814 33.016 107.51 33.0761C107.003 33.2181 106.504 33.4018 105.987 33.517C105.368 33.7206 104.733 33.8646 104.113 34.0682C103.61 34.179 103.124 34.3584 102.625 34.4975C102.293 34.562 101.972 34.6875 101.644 34.7802C101.098 34.8951 100.576 35.1114 100.03 35.2263C99.4731 35.4141 98.899 35.5481 98.3367 35.7179C98.3397 35.7119 98.3382 35.6926 98.3367 35.6881C98.5242 35.6315 98.7013 35.5584 98.8858 35.4929C99.2799 35.3038 99.7079 35.2029 100.101 35.0094C100.53 34.8683 100.936 34.6705 101.365 34.5294C101.729 34.3505 102.124 34.2553 102.487 34.0764C102.934 33.9295 103.353 33.7273 103.799 33.5759C104.151 33.4059 104.531 33.3105 104.883 33.1405C105.314 33.0039 105.717 32.7971 106.148 32.6605C106.552 32.473 106.986 32.3453 107.392 32.1623C107.298 32.0098 107.212 31.8542 107.122 31.7C107.057 31.6073 106.941 31.6704 106.857 31.6831C105.85 31.8598 104.848 32.0353 103.848 32.2152C103.893 32.1455 103.985 32.1402 104.053 32.108C104.778 31.8054 105.495 31.4953 106.221 31.1972C106.386 31.133 106.54 31.0478 106.707 30.988C106.555 30.7799 106.427 30.5391 106.254 30.3576C104.584 30.6335 102.922 30.9363 101.25 31.1928C101.64 30.9903 102.046 30.8223 102.443 30.6422L102.474 30.6171C103.743 30.0461 105.011 29.4559 106.284 28.8941C107.95 28.3368 109.616 27.7941 111.287 27.2503C111.337 27.2239 111.439 27.2201 111.423 27.1411C111.322 26.3705 111.216 25.6014 111.115 24.8307C110.974 23.7605 110.949 22.6673 111.112 21.5964C111.357 19.8784 112.101 18.2448 113.235 16.9492C114.294 15.7379 115.694 14.8612 117.184 14.2921C117.661 14.0858 118.161 13.9364 118.669 13.839C119.013 13.8104 119.37 13.7924 119.694 13.9289C119.958 14.0307 120.165 14.2408 120.34 14.4611C120.74 14.9898 121.058 15.57 121.36 16.1606C121.446 16.4099 121.583 16.6775 121.526 16.9496C121.475 17.2142 121.263 17.4032 121.05 17.5475C120.269 18.0522 119.305 18.1354 118.52 18.6267C117.866 19.0103 117.34 19.6197 117.08 20.3354C116.771 21.1713 116.763 22.087 116.878 22.9621C117 23.7359 117.091 24.5198 117.214 25.298C118.057 25.0262 118.9 24.7393 119.748 24.4705C120.085 24.36 120.492 24.4346 120.735 24.7119C121.048 25.0658 121.161 25.5447 121.246 25.998C121.335 26.5095 121.379 27.0309 121.309 27.5501C121.253 27.9904 121.067 28.4387 120.699 28.7083C120.514 28.8633 120.278 28.921 120.053 28.9952C119.309 29.2396 118.568 29.4929 117.821 29.7283C117.882 30.3185 117.988 30.909 118.066 31.5037C118.229 32.656 118.397 33.8113 118.561 34.9682C118.569 35.0055 118.589 35.0831 118.603 35.1234C118.958 35.0264 119.302 34.8935 119.655 34.7875C122.249 33.9351 124.847 33.0766 127.448 32.2273C127.729 32.1447 127.991 31.9844 128.189 31.7655C128.317 31.6638 128.363 31.5048 128.468 31.391C128.568 31.2786 128.555 31.1192 128.631 30.9902C128.678 30.7464 128.727 30.4922 128.656 30.2473C128.67 30.2429 128.703 30.2268 128.72 30.2166C125.999 21.9803 123.305 13.7352 120.589 5.49738Z" fill="url(#paint0_linear_1108_244)" stroke="#FCD109" stroke-width="0.094"/>
<path id="Vector_2" d="M91.3818 9.08942C91.7185 8.84485 92.139 8.796 92.5155 8.64254C99.7474 6.27155 106.976 3.8916 114.207 1.51615C114.63 1.35714 115.087 1.47982 115.527 1.4743C115.889 1.49944 116.255 1.49335 116.619 1.52746C116.694 1.53251 116.762 1.57473 116.827 1.60802C117.017 2.20066 117.217 2.79487 117.412 3.39053C117.468 3.5458 117.495 3.71579 117.598 3.85061C117.695 3.83346 117.768 3.88915 117.849 3.92698C118.185 3.96533 118.505 4.10335 118.83 4.19522C119.322 4.35093 119.83 4.46206 120.317 4.62967C120.372 4.74031 120.399 4.86559 120.399 4.98471C120.4 5.12318 120.471 5.24884 120.499 5.3786C110.011 8.82919 99.5249 12.2694 89.0416 15.7185C88.9709 15.578 88.9622 15.4171 88.8546 15.2986C88.8075 15.1851 88.7176 15.0459 88.8018 14.9289C89.1416 14.4699 89.5182 14.0336 89.8432 13.5596C90.0559 13.2962 90.2582 13.0313 90.4606 12.7663C90.4843 12.6593 90.4298 12.5531 90.3974 12.4546C90.1841 11.8052 89.9707 11.1558 89.7618 10.5049C89.8476 10.2584 90.1016 10.1501 90.2772 9.98327C90.645 9.68379 91.0186 9.38739 91.3818 9.08942ZM91.4334 9.15683C90.9388 9.56248 90.4368 9.96063 89.9421 10.3663C89.8713 10.4044 89.8534 10.4847 89.8328 10.556C89.849 10.5904 89.874 10.6517 89.8858 10.6875C90.0578 11.2264 90.2389 11.7624 90.411 12.3013C90.4596 12.4342 90.486 12.5744 90.5744 12.6793C90.536 12.7564 90.4932 12.835 90.437 12.9031C89.9333 13.535 89.4635 14.1955 88.9583 14.8229C88.8697 14.9265 88.7751 15.0568 88.8591 15.1929C88.8635 15.2808 88.9254 15.3349 89.0021 15.2849C90.3895 14.8191 91.7812 14.3817 93.1643 13.9026C95.232 13.2232 97.2968 12.5498 99.363 11.866L99.3896 11.8424C99.4899 11.8343 99.5799 11.7948 99.6773 11.7628C103.423 10.5321 107.17 9.30595 110.919 8.06939C112.098 7.68691 113.279 7.29403 114.461 6.90565C116.409 6.2656 118.368 5.64199 120.313 4.99298C120.366 4.96063 120.371 4.91451 120.325 4.85012C120.297 4.77995 120.291 4.67266 120.201 4.6526C119.843 4.60663 119.502 4.4655 119.147 4.38382C119.011 4.32913 118.858 4.32499 118.738 4.23025C118.375 4.15595 118.021 4.03407 117.657 3.94042C117.587 3.92352 117.524 3.87984 117.459 3.84655C117.455 3.74377 117.43 3.63785 117.398 3.53932C117.206 2.97199 117.024 2.40174 116.833 1.83441C116.816 1.74047 116.778 1.63893 116.679 1.6069C116.085 1.58888 115.49 1.55594 114.898 1.53201C114.708 1.50522 114.512 1.52007 114.326 1.55139L91.696 8.9862C91.6003 9.02262 91.5235 9.10243 91.4334 9.15683Z" fill="#F8F3B5" stroke="#F8F3B5" stroke-width="0.094"/>
<path id="Vector_3" d="M89.8834 10.687C90.3275 10.7247 90.7745 10.682 91.2216 10.7138C91.4621 10.729 91.6051 10.9401 91.7598 11.0977C91.6977 11.2223 91.612 11.3348 91.5248 11.4428C91.2087 11.8543 90.8808 12.2598 90.5721 12.6788C90.4836 12.5739 90.4573 12.4337 90.4086 12.3008C90.2366 11.7619 90.0556 11.2259 89.8834 10.687ZM115.769 2.64912C116.111 2.36291 116.488 2.12013 116.83 1.83389C117.022 2.40122 117.204 2.97147 117.395 3.5388C117.428 3.63733 117.453 3.74325 117.457 3.84603C117.032 3.71765 116.607 3.60415 116.184 3.48025C115.975 3.41012 115.758 3.37717 115.557 3.27435C115.588 3.0557 115.584 2.80401 115.769 2.64912Z" fill="#F7B402" stroke="#F7B402" stroke-width="0.094"/>
<path id="Vector_4" d="M96.841 9.07194C97.2898 8.79548 97.9786 9.05547 98.108 9.58361C98.2787 10.0882 97.8871 10.6734 97.3663 10.7155C97.1494 10.7123 96.9295 10.6704 96.7526 10.535C96.5197 10.3486 96.3797 10.0422 96.4184 9.74172C96.4246 9.46182 96.6078 9.21308 96.841 9.07194ZM109.566 5.20393C109.695 4.90861 109.975 4.67253 110.303 4.65423C110.551 4.64722 110.82 4.72229 110.991 4.91422C111.313 5.23538 111.333 5.80436 111.018 6.131C110.744 6.42969 110.289 6.47973 109.943 6.29091C109.583 6.07666 109.403 5.58986 109.566 5.20393Z" fill="#BDA727" stroke="#BDA727" stroke-width="0.094"/>
<path id="Vector_5" d="M91.529 11.4423C91.6161 11.3343 91.7018 11.2218 91.764 11.0972L91.8052 11.1184C91.9127 11.3411 91.9685 11.5857 92.0539 11.8157C92.2702 12.5187 92.5277 13.2132 92.7263 13.922C91.4378 14.3453 90.1465 14.7596 88.8609 15.1919C88.7769 15.0558 88.8715 14.9255 88.9601 14.8219C89.4653 14.1945 89.9351 13.534 90.4388 12.9021C90.495 12.834 90.5378 12.7554 90.5762 12.6783C90.8849 12.2593 91.2129 11.8538 91.529 11.4423ZM115.568 3.44522C115.549 3.38699 115.546 3.33334 115.561 3.27392C115.762 3.37673 115.979 3.40966 116.188 3.47981C116.611 3.60372 117.036 3.71721 117.461 3.84559C117.526 3.87886 117.589 3.92253 117.659 3.93947C118.023 4.03312 118.377 4.15502 118.74 4.22929C118.859 4.32403 119.013 4.32822 119.148 4.38286C119.504 4.46455 119.845 4.60568 120.203 4.65165C120.293 4.6717 120.299 4.77896 120.327 4.84917C119.04 5.27698 117.753 5.68988 116.467 6.12212C116.386 5.95024 116.341 5.76673 116.279 5.59352C116.044 4.8769 115.799 4.16323 115.568 3.44522Z" fill="#F7E62D" stroke="#F7E62D" stroke-width="0.094"/>
<path id="Vector_6" d="M120.329 4.84908C119.042 5.2769 117.755 5.6898 116.47 6.12203C116.389 5.95016 116.343 5.76665 116.282 5.59344C116.046 4.87685 115.802 4.16317 115.571 3.44516C115.552 3.38694 115.549 3.33328 115.563 3.27386C115.595 3.05518 115.59 2.80352 115.775 2.6486C116.118 2.36239 116.494 2.11961 116.837 1.83337C116.821 1.73943 116.782 1.63787 116.683 1.60587C116.089 1.58784 115.494 1.5549 114.903 1.53097C114.712 1.50418 114.516 1.51903 114.33 1.55035L91.7002 8.98515C91.6043 9.02164 91.5275 9.10145 91.4374 9.15585C90.9428 9.5615 90.4408 9.95965 89.9461 10.3653C89.8753 10.4035 89.8574 10.4838 89.8368 10.555C89.853 10.5894 89.878 10.6507 89.8898 10.6865C90.3338 10.7242 90.7809 10.6815 91.228 10.7133C91.4685 10.7286 91.6114 10.9396 91.7662 11.0972L91.8074 11.1184C91.9149 11.3411 91.9707 11.5857 92.0561 11.8157C92.2724 12.5187 92.5299 13.2132 92.7285 13.922C91.44 14.3453 90.1487 14.7596 88.8631 15.1919C88.8675 15.2798 88.9294 15.3339 89.0062 15.2839C90.3935 14.8182 91.7853 14.3808 93.1683 13.9016C95.236 13.2222 97.3008 12.5489 99.367 11.865L99.3936 11.8414C99.4939 11.8333 99.5839 11.7938 99.6813 11.7618C103.427 10.5311 107.174 9.30497 110.923 8.06841C112.102 7.68593 113.283 7.29305 114.465 6.90467C116.413 6.26462 118.372 5.64101 120.317 4.992C120.371 4.9596 120.375 4.91347 120.329 4.84908ZM96.4225 9.74105C96.4287 9.46115 96.6118 9.21244 96.8451 9.07127C97.2939 8.79481 97.9827 9.05479 98.1121 9.58293C98.2828 10.0876 97.8912 10.6727 97.3704 10.7148C97.1535 10.7116 96.9336 10.6698 96.7568 10.5343C96.5238 10.3479 96.3839 10.0415 96.4225 9.74105ZM109.57 5.20326C109.699 4.90793 109.979 4.67186 110.307 4.65356C110.555 4.64655 110.825 4.72161 110.996 4.91354C111.317 5.2347 111.337 5.80369 111.022 6.13033C110.748 6.42902 110.293 6.47906 109.947 6.29023C109.587 6.07599 109.407 5.58918 109.57 5.20326Z" fill="url(#paint1_radial_1108_244)" stroke="#FCD109" stroke-width="0.094"/>
<path id="Vector_7" d="M112.285 9.67194C112.352 9.66504 111.84 9.40417 111.909 9.36152C111.983 9.3472 112.182 9.04806 112.563 9.11345C112.945 9.17886 112.996 9.60798 113.009 9.76941C113.023 9.96152 112.949 10.1117 112.889 10.2303C112.854 10.2866 112.765 10.3852 112.698 10.4026C112.665 10.17 112.525 10.1764 112.443 9.95534L112.285 9.67194Z" fill="url(#paint2_linear_1108_244)" stroke="#FCD109" stroke-width="0.094"/>
<path id="Vector_8" d="M98.2102 14.5647C98.2749 14.7915 98.1582 14.8696 98.2702 15.0759C98.2053 15.1022 98.0754 15.0754 98.0135 15.0511C97.8955 14.9906 97.7466 14.9139 97.6443 14.7506C97.5584 14.6134 97.3456 14.2372 97.6137 13.9584C97.8818 13.6796 98.2197 13.8023 98.2877 13.7701C98.3688 13.7633 98.1114 14.2769 98.1689 14.2431L98.2102 14.5647Z" fill="url(#paint3_linear_1108_244)" stroke="#FCD109" stroke-width="0.094"/>
<path id="Vector_9" d="M112.65 12.731C112.697 12.6506 112.741 12.636 112.83 12.6069C112.681 13.946 112.444 15.3141 111.81 16.5269C111.74 16.6496 111.662 16.7677 111.577 16.8802C111.496 16.9943 111.416 17.1027 111.336 17.2123C111.258 17.3173 111.18 17.4225 111.106 17.5299C110.9 17.7517 110.742 18.017 110.491 18.1937C110.062 18.6073 109.568 18.9534 109.053 19.2517C108.847 19.3588 108.644 19.4852 108.424 19.5625C108.176 19.7333 107.864 19.771 107.591 19.8806C107.445 19.9584 107.278 19.9139 107.134 19.9813C106.997 20.0055 106.859 20.0259 106.721 20.0423C106.581 20.0583 106.44 20.0699 106.299 20.0769C104.059 20.1033 101.551 19.1904 100.274 17.2611C100.201 17.1269 100.141 16.9864 100.093 16.8412C100.196 16.9462 100.301 17.0496 100.408 17.1511C101.832 18.7011 103.941 19.5961 106.019 19.3924C106.2 19.4132 106.361 19.332 106.532 19.3452C106.67 19.3001 106.801 19.252 106.949 19.2531C107.408 19.1122 107.862 18.9579 108.318 18.8081C108.382 18.7923 108.429 18.742 108.487 18.7082C109.238 18.4324 109.914 17.978 110.503 17.4322C110.621 17.323 110.735 17.2102 110.846 17.0944C110.943 16.9932 111.035 16.8877 111.123 16.7782C111.209 16.6707 111.291 16.5595 111.367 16.445C111.971 15.5189 112.4 14.4352 112.56 13.2986C112.594 13.0924 112.624 12.9018 112.65 12.731Z" fill="#BDA727" stroke="#BDA727" stroke-width="0.094"/>
<path id="Vector_10" d="M113.236 16.9498C114.295 15.7385 115.695 14.8619 117.186 14.2927C117.662 14.0864 118.163 13.937 118.67 13.8397C119.014 13.8111 119.371 13.793 119.696 13.9295C119.57 13.9807 119.427 13.9632 119.293 13.9874C118.906 14.0351 118.539 14.1856 118.168 14.2974C117.101 14.648 116.053 15.0865 115.119 15.721C114.633 16.0642 114.156 16.4343 113.759 16.8824C113.065 17.6364 112.505 18.5151 112.132 19.4712C111.447 21.1202 111.332 22.9643 111.564 24.7292C111.706 25.6698 111.824 26.6133 111.981 27.5541C111.767 27.6492 111.537 27.71 111.316 27.7827C110.34 28.0983 109.365 28.4138 108.388 28.725C108.183 28.8022 107.963 28.82 107.759 28.9017C105.991 29.4925 104.215 30.0609 102.444 30.6428L102.475 30.6177C103.745 30.0467 105.013 29.4565 106.285 28.8947C107.951 28.3374 109.618 27.7947 111.288 27.2509C111.338 27.2245 111.44 27.2207 111.424 27.1417C111.323 26.3711 111.217 25.602 111.116 24.8313C110.976 23.7611 110.95 22.6679 111.113 21.597C111.358 19.8791 112.102 18.2454 113.236 16.9498Z" fill="#0D69B3" stroke="#0D69B3" stroke-width="0.094"/>
<path id="Vector_11" d="M115.119 15.7207C116.053 15.0862 117.101 14.6476 118.168 14.297C118.539 14.1853 118.906 14.0347 119.293 13.9871C119.427 13.9629 119.57 13.9804 119.696 13.9292C119.96 14.031 120.166 14.2411 120.341 14.4613C120.741 14.9901 121.059 15.5703 121.361 16.1609C121.448 16.4102 121.585 16.6778 121.527 16.9499C121.476 17.2145 121.264 17.4034 121.051 17.5477C120.27 18.0524 119.307 18.1357 118.521 18.627C117.867 19.0106 117.342 19.62 117.081 20.3357C116.772 21.1716 116.764 22.0873 116.88 22.9624C117.001 23.7361 117.092 24.5201 117.215 25.2983C117.217 25.4815 117.245 25.6708 117.271 25.8558C118.112 25.5943 118.945 25.3059 119.784 25.0399C120.1 24.9263 120.425 24.8393 120.736 24.7122C121.049 25.0661 121.162 25.545 121.247 25.9983C121.337 26.5097 121.38 27.0312 121.311 27.5504C121.254 27.9907 121.068 28.439 120.7 28.7086C120.516 28.8635 120.28 28.9213 120.054 28.9955C119.31 29.2399 118.569 29.4932 117.822 29.7286C117.884 30.3188 117.989 30.9093 118.067 31.504C118.23 32.6563 118.398 33.8116 118.563 34.9685C118.57 35.0058 118.591 35.0833 118.604 35.1237L118.605 35.1281C116.67 35.7638 114.741 36.4026 112.805 37.0337C112.804 37.0145 112.798 36.9816 112.796 36.9622C112.793 36.9383 112.782 36.8876 112.777 36.8593C112.793 36.8937 112.82 36.9595 112.835 36.9893C112.959 36.9635 113.196 36.9549 113.17 36.7701C112.929 35.023 112.664 33.2742 112.432 31.5242C112.304 31.5366 112.18 31.5774 112.063 31.6405C112.066 31.709 112.069 31.7775 112.068 31.8474L112.028 31.6372C110.822 32.0283 109.615 32.43 108.409 32.821C108.114 32.9083 107.816 33.016 107.512 33.0762C107.004 33.2182 106.505 33.4019 105.989 33.517C105.369 33.7206 104.734 33.8647 104.114 34.0683C103.611 34.1791 103.126 34.3584 102.627 34.4975C102.295 34.562 101.973 34.6875 101.645 34.7802C101.099 34.8951 100.577 35.1115 100.031 35.2263C99.4745 35.4141 98.9004 35.5481 98.3381 35.718C98.341 35.712 98.3396 35.6927 98.3381 35.6882C98.5255 35.6316 98.7026 35.5584 98.8871 35.4929C99.2813 35.3039 99.7092 35.2029 100.102 35.0095C100.531 34.8684 100.937 34.6705 101.367 34.5294C101.73 34.3506 102.125 34.2553 102.488 34.0765C102.936 33.9296 103.355 33.7273 103.801 33.5759C104.152 33.4059 104.533 33.3106 104.884 33.1406C105.315 33.004 105.718 32.7972 106.149 32.6605C106.553 32.473 106.987 32.3454 107.393 32.1624C107.299 32.0098 107.213 31.8543 107.124 31.7001C107.059 31.6073 106.942 31.6704 106.858 31.6832C105.852 31.8599 104.85 32.0353 103.849 32.2152C103.895 32.1455 103.986 32.1402 104.054 32.1081C104.779 31.8054 105.496 31.4953 106.223 31.1973C106.388 31.133 106.541 31.0479 106.708 30.9881C106.556 30.7799 106.428 30.5392 106.256 30.3576C104.585 30.6335 102.924 30.9363 101.252 31.1929C101.641 30.9904 102.047 30.8223 102.444 30.6422C104.215 30.0604 105.991 29.492 107.759 28.9011C107.963 28.8194 108.183 28.8017 108.388 28.7244C109.365 28.4133 110.34 28.0978 111.316 27.7821C111.537 27.7094 111.768 27.6487 111.982 27.5536C111.825 26.6128 111.706 25.6692 111.564 24.7286C111.332 22.9636 111.447 21.1196 112.132 19.4706C112.505 18.5145 113.065 17.6359 113.759 16.8818C114.156 16.4339 114.633 16.0639 115.119 15.7207Z" fill="#107BD4" stroke="#107BD4" stroke-width="0.094"/>
<path id="Vector_12" d="M117.215 25.2983C118.058 25.0265 118.901 24.7396 119.749 24.4708C120.086 24.3603 120.493 24.4349 120.736 24.7122C120.425 24.8393 120.1 24.9262 119.784 25.0399C118.945 25.3059 118.112 25.5943 117.271 25.8558C117.245 25.6709 117.217 25.4816 117.215 25.2983ZM112.063 31.6405C112.18 31.5774 112.304 31.5366 112.432 31.5243C112.664 33.2743 112.929 35.023 113.17 36.7701C113.196 36.9549 112.958 36.9636 112.835 36.9894C112.82 36.9595 112.793 36.8938 112.777 36.8594C112.538 35.1913 112.289 33.5216 112.067 31.8476C112.069 31.7775 112.066 31.7091 112.063 31.6405Z" fill="#0D69B3" stroke="#0D69B3" stroke-width="0.094"/>
<path id="Vector_13" d="M112.527 9.73055C112.47 9.67501 112.439 9.59583 112.414 9.5197L112.38 9.53583C112.262 9.35621 112.037 9.22191 111.821 9.28279C111.657 9.32174 111.46 9.39168 111.417 9.57447C111.319 9.87451 111.505 10.1559 111.586 10.432C111.591 10.4499 111.606 10.4798 111.612 10.4977C111.672 10.6814 111.709 10.8678 111.737 11.0571C111.728 11.1196 111.734 11.1821 111.755 11.2448C111.818 11.6906 111.804 12.1566 111.725 12.6041C111.703 12.671 111.691 12.7394 111.699 12.8064C111.642 13.083 111.554 13.3503 111.46 13.6191C111.441 13.6502 111.428 13.6844 111.414 13.7185C111.346 13.8997 111.262 14.0613 111.175 14.2289C111.15 14.257 111.135 14.2867 111.114 14.3133C111.012 14.5106 110.89 14.7047 110.745 14.8763C110.727 14.897 110.711 14.9222 110.69 14.9489C109.805 16.0782 108.532 16.8441 107.194 17.2983C106.068 17.7079 104.84 17.8384 103.65 17.6787C103.629 17.6756 103.579 17.6722 103.558 17.6691C103.355 17.6318 103.151 17.6093 102.954 17.5453C102.912 17.539 102.869 17.5282 102.824 17.5234C102.628 17.4787 102.437 17.4221 102.25 17.3447C102.187 17.316 102.122 17.2976 102.055 17.2747C101.853 17.1972 101.644 17.1122 101.455 17.0005C101.406 16.9718 101.359 16.9477 101.312 16.9235C100.663 16.5759 100.084 16.0815 99.6639 15.4751C99.2983 15.0048 99.1336 14.4138 98.9276 13.8612C98.6872 13.6673 98.3051 13.639 98.0895 13.8785C98.0053 13.9955 98.0406 14.1477 97.9903 14.2783C98.3386 15.8014 99.447 17.0698 100.793 17.8084C100.805 17.8442 100.83 17.8608 100.866 17.864C101.097 17.9715 101.326 18.085 101.556 18.1881C101.597 18.2092 101.643 18.2289 101.692 18.2427C101.917 18.3323 102.152 18.4041 102.383 18.4819C102.428 18.4971 102.47 18.5079 102.518 18.5172C102.808 18.5805 103.094 18.6751 103.388 18.6877C103.41 18.6953 103.448 18.7076 103.469 18.7107C104.444 18.8419 105.443 18.8213 106.402 18.6054C106.504 18.572 106.609 18.5475 106.718 18.5364C107.17 18.4178 107.608 18.2589 108.048 18.1045C109.376 17.5341 110.678 16.7341 111.553 15.5437L111.572 15.5573C111.597 15.5143 111.619 15.4772 111.646 15.4387C111.784 15.2447 111.914 15.0432 112.042 14.8372C112.072 14.7928 112.104 14.7424 112.131 14.689C112.255 14.41 112.416 14.1387 112.499 13.8386L112.53 13.8433C112.536 13.8166 112.543 13.7645 112.549 13.7377C112.632 13.4823 112.699 13.2222 112.761 12.9635C112.765 12.9472 112.78 12.9176 112.785 12.9012L112.761 12.8891C112.768 12.8668 112.788 12.8208 112.795 12.7985C112.874 12.2169 112.918 11.6216 112.811 11.0415C112.838 11.0179 112.847 10.9852 112.837 10.9539C112.782 10.7732 112.788 10.5827 112.712 10.4094C112.679 10.177 112.61 9.95158 112.527 9.73055Z" fill="white" stroke="white" stroke-width="0.094"/>
<g id="Clip path group">
<mask id="mask0_1108_244" style="mask-type:luminance" maskUnits="userSpaceOnUse" x="97" y="9" width="16" height="10">
<g id="f">
<path id="Vector_14" d="M112.527 9.73055C112.47 9.67501 112.439 9.59583 112.414 9.5197L112.38 9.53583C112.262 9.35621 112.037 9.22191 111.821 9.28279C111.657 9.32174 111.46 9.39168 111.417 9.57447C111.319 9.87451 111.505 10.1559 111.586 10.432C111.591 10.4499 111.606 10.4798 111.612 10.4977C111.672 10.6814 111.709 10.8678 111.737 11.0571C111.728 11.1196 111.734 11.1821 111.755 11.2448C111.818 11.6906 111.804 12.1566 111.725 12.6041C111.703 12.671 111.691 12.7394 111.699 12.8064C111.642 13.083 111.554 13.3503 111.46 13.6191C111.441 13.6502 111.428 13.6844 111.414 13.7185C111.346 13.8997 111.262 14.0613 111.175 14.2289C111.15 14.257 111.135 14.2867 111.114 14.3133C111.012 14.5106 110.89 14.7047 110.745 14.8763C110.727 14.897 110.711 14.9222 110.69 14.9489C109.805 16.0782 108.532 16.8441 107.194 17.2983C106.068 17.7079 104.84 17.8384 103.65 17.6787C103.629 17.6756 103.579 17.6722 103.558 17.6691C103.355 17.6318 103.151 17.6093 102.954 17.5453C102.912 17.539 102.869 17.5282 102.824 17.5234C102.628 17.4787 102.437 17.4221 102.25 17.3447C102.187 17.316 102.122 17.2976 102.055 17.2747C101.853 17.1972 101.644 17.1122 101.455 17.0005C101.406 16.9718 101.359 16.9477 101.312 16.9235C100.663 16.5759 100.084 16.0815 99.6639 15.4751C99.2983 15.0048 99.1336 14.4138 98.9276 13.8612C98.6872 13.6673 98.3051 13.639 98.0895 13.8785C98.0053 13.9955 98.0406 14.1477 97.9903 14.2783C98.3386 15.8014 99.447 17.0698 100.793 17.8084C100.805 17.8442 100.83 17.8608 100.866 17.864C101.097 17.9715 101.326 18.085 101.556 18.1881C101.597 18.2092 101.643 18.2289 101.692 18.2427C101.917 18.3323 102.152 18.4041 102.383 18.4819C102.428 18.4971 102.47 18.5079 102.518 18.5172C102.808 18.5805 103.094 18.6751 103.388 18.6877C103.41 18.6953 103.448 18.7076 103.469 18.7107C104.444 18.8419 105.443 18.8213 106.402 18.6054C106.504 18.572 106.609 18.5475 106.718 18.5364C107.17 18.4178 107.608 18.2589 108.048 18.1045C109.376 17.5341 110.678 16.7341 111.553 15.5437L111.572 15.5573C111.597 15.5143 111.619 15.4772 111.646 15.4387C111.784 15.2447 111.914 15.0432 112.042 14.8372C112.072 14.7928 112.104 14.7424 112.131 14.689C112.255 14.41 112.416 14.1387 112.499 13.8386L112.53 13.8433C112.536 13.8166 112.543 13.7645 112.549 13.7377C112.632 13.4823 112.699 13.2222 112.761 12.9635C112.765 12.9472 112.78 12.9176 112.785 12.9012L112.761 12.8891C112.768 12.8668 112.788 12.8208 112.795 12.7985C112.874 12.2169 112.918 11.6216 112.811 11.0415C112.838 11.0179 112.847 10.9852 112.837 10.9539C112.782 10.7732 112.788 10.5827 112.712 10.4094C112.679 10.177 112.61 9.95158 112.527 9.73055Z" fill="white"/>
</g>
</mask>
<g mask="url(#mask0_1108_244)">
<g id="Group">
<path id="Vector_15" d="M97.6668 14.4451C98.0631 14.441 98.7935 13.8836 99.113 14.0691M98.2363 15.4819C98.5405 15.2478 99.1839 14.7189 99.5452 14.7872M98.9535 16.4703C99.1377 16.4701 99.3683 16.067 99.5027 15.9269C99.7025 15.7185 99.9186 15.5381 100.174 15.4076M99.8674 17.4602C99.9579 17.1573 100.096 16.8852 100.286 16.6286C100.475 16.3745 100.994 15.6902 101.335 15.7541M100.644 18.1313C100.787 17.9109 100.775 17.6079 100.926 17.3763C101.108 17.0962 101.475 16.936 101.688 16.7297M101.681 18.4769C101.597 18.0247 101.86 17.3594 102.287 17.2605M102.522 18.8706C102.734 18.7764 102.756 18.2192 102.849 18.0024C102.988 17.6775 103.193 17.5244 103.458 17.3392M103.968 18.991C103.851 18.6824 103.876 17.6788 104.264 17.6035M105.01 18.9793C104.873 18.6141 104.697 17.4381 105.13 17.2529M106.181 19.2564C105.926 18.7664 105.685 18.0155 105.966 17.5076M107.43 18.9782C107.243 18.5614 106.533 17.8281 106.891 17.336M108.631 18.253C108.35 18.0821 107.925 17.1842 107.924 16.8974M109.802 17.6366C109.552 17.4012 109.27 17.1954 109.101 16.882C109 16.6946 108.969 16.3909 108.888 16.2497M110.688 16.8493C110.276 16.7365 109.911 15.9439 109.902 15.5527M111.544 16.0718C111.132 15.6282 110.742 15.3073 110.542 14.7139M112.205 14.7963C111.747 14.6646 111.117 14.3585 111.005 13.834M112.973 13.6507C112.362 13.7101 111.511 13.4196 111.016 13.0696M113.121 12.5102C112.682 12.556 111.151 12.4664 111.056 11.8986M113.221 11.3198C112.58 11.2956 111.685 11.3782 111.096 11.1246M113.202 10.2673C112.852 10.4168 112.279 10.4099 111.892 10.4663C111.462 10.5289 111.04 10.5142 110.615 10.5549M112.544 9.45814C111.863 9.72836 111.133 9.70207 110.429 9.68989" stroke="#D1D1D1" stroke-width="2"/>
</g>
</g>
</g>
<g id="Group_2">
<path id="Vector_16" d="M24.3938 40.8061C25.0033 40.4973 25.7216 40.1935 26.3991 40.4186C26.8225 40.5643 27.0964 40.9898 27.209 41.4142C27.4585 42.0919 27.3852 42.93 26.8967 43.484C26.4605 43.9529 25.827 44.1881 25.2136 44.3218C24.7981 44.4041 24.3262 44.315 23.9997 44.0153C23.1896 43.1011 23.2637 41.408 24.3938 40.8061ZM5.44752 47.8854C5.36308 47.5061 5.58136 47.0681 5.96065 46.9571C8.75718 46.0383 11.5455 45.1358 14.3258 44.2088C14.6204 44.0849 14.9915 44.1121 15.2252 44.3338C15.5517 44.6336 15.5029 45.0973 15.6034 45.4849C15.6877 46.0269 15.9371 46.7048 15.4084 47.0955C13.3947 47.8249 11.3408 48.4319 9.31501 49.1246C9.54776 50.4861 9.7886 51.8315 10.0173 53.1809C10.0334 53.2299 10.0818 53.3362 10.0978 53.385C11.5828 52.8837 13.0758 52.4066 14.5608 51.9053C14.9644 51.7455 15.5168 51.9576 15.6253 52.4103C15.7379 52.8753 15.7858 53.3479 15.8742 53.8209C15.9262 54.1429 15.7767 54.5041 15.482 54.6687C13.8356 55.2503 12.1287 55.7297 10.4945 56.348C10.8356 58.2846 11.1282 60.2369 11.4573 62.1775C11.5418 62.5568 11.3557 62.9706 10.9966 63.102C10.3107 63.341 9.62054 63.5678 8.92654 63.7821C8.48268 63.9416 7.95448 63.5587 7.9347 63.0905C7.08838 58.0234 6.26998 52.9606 5.44752 47.8854ZM17.5296 43.1832C18.1432 42.9275 18.7967 42.7534 19.4223 42.5344C19.8017 42.3826 20.2896 42.5614 20.4586 42.9537C20.5632 43.272 20.5831 43.6182 20.6514 43.9485C21.2211 47.3973 21.7787 50.85 22.3484 54.2988C22.4488 54.8492 22.5007 55.4561 22.8351 55.9433C23.1937 56.4223 23.9282 55.9232 24.307 56.4228C24.5769 56.8361 24.6006 57.3574 24.7172 57.8347C24.882 58.4589 24.2362 58.8202 23.8085 59.1102C22.8439 59.6441 21.5486 59.9069 20.5285 59.2922C19.7907 58.8428 19.4647 57.973 19.3163 57.1536C18.5901 52.7795 17.8638 48.4054 17.1457 44.0149C17.0815 43.6968 17.231 43.3357 17.5296 43.1832ZM41.7769 35.9498C41.6924 35.5705 41.9148 35.1448 42.2779 35.0255L44.118 34.4209C44.574 34.2575 45.1143 34.6362 45.1501 35.1128C45.6195 37.9705 46.0769 40.8321 46.5463 43.6896C47.1557 43.3809 47.8418 43.0198 48.1168 42.3461C48.5856 41.2423 48.8773 40.0478 48.9953 38.8558C49.0198 38.4 48.9115 37.7844 49.4079 37.5398C50.0899 37.2886 50.796 37.0702 51.4901 36.8558C51.9582 36.6884 52.4863 37.1118 52.4737 37.6043C52.5054 38.3131 52.3999 39.0125 52.2743 39.6914C51.9502 41.0732 51.5497 42.4664 50.8304 43.7067C51.7248 44.9187 52.7284 46.0542 53.6632 47.226C53.9533 47.619 54.4734 48.0179 54.2873 48.554C54.0809 49.1916 53.2943 49.165 52.7939 49.3972C52.229 49.515 51.5347 50.0552 51.0268 49.5301C50.0193 48.3823 49.0967 47.1661 48.077 46.0222C47.7421 46.1457 47.3951 46.2734 47.044 46.3481C47.036 46.405 47.0197 46.5188 47.0116 46.5758C47.2322 47.86 47.4409 49.1481 47.6494 50.4362C47.6733 50.754 47.5278 51.0867 47.2212 51.2146C46.5877 51.4499 45.9298 51.6523 45.2761 51.8671C44.9976 51.9586 44.6832 51.8585 44.4816 51.6534C44.2801 51.4481 44.2601 51.1428 44.2081 50.8614C43.4057 45.8882 42.5912 40.9189 41.7769 35.9498ZM75.8573 26.2318C75.8294 25.861 76.0797 25.521 76.4228 25.4218C76.9111 25.2751 77.3994 25.0875 77.9037 24.949C78.3072 24.8299 78.7547 25.1306 78.835 25.5383C78.9917 26.2602 79.0514 27.0139 79.2324 27.7277C79.7045 27.5726 80.1847 27.4013 80.6608 27.2583C81.0846 27.1191 81.5805 27.4447 81.6446 27.8848C81.7088 28.2844 81.7447 28.6797 81.8088 29.079C81.853 29.4173 81.6712 29.7619 81.3846 29.9103C80.8156 30.138 80.2266 30.2637 79.6777 30.5118C79.9746 32.2321 80.2474 33.9604 80.5323 35.685C80.6206 36.0765 80.7372 36.5129 81.0637 36.772C81.5234 37.0687 82.044 36.7348 82.5202 36.6327C82.9196 36.6235 83.2823 36.9522 83.3425 37.3395C83.4187 37.7756 83.5434 38.1959 83.5793 38.6318C83.5829 39.1325 83.0905 39.3893 82.7272 39.6307C81.7221 40.2866 80.451 40.7042 79.2573 40.3773C78.1442 40.0511 77.6006 38.8866 77.3595 37.8261C76.9619 35.7589 76.7139 33.6562 76.276 31.5887C75.941 31.7122 75.5455 31.8965 75.1908 31.6738C74.7997 31.4632 74.7961 30.9624 74.7197 30.5668C74.6597 30.1388 74.4745 29.6163 74.838 29.2527C75.1447 29.0026 75.5765 28.9694 75.9356 28.7971C75.9082 27.938 75.8686 27.0828 75.8573 26.2318ZM70.3209 32.4463C70.8302 31.4243 71.541 30.4853 72.4896 29.821C72.8812 29.4616 73.6031 29.6586 73.7601 30.1768C73.8966 30.8782 73.9564 31.591 74.0647 32.2881C74.1248 32.6347 73.939 33.0078 73.6241 33.1519C72.5061 33.7498 71.7145 34.8102 71.173 35.9379C71.0517 36.2627 70.8295 36.607 70.9098 36.974C71.2189 38.7718 71.5158 40.5737 71.8126 42.3755C71.8971 42.7547 71.6989 43.2134 71.3156 43.3121L69.4755 43.9167C69.0599 44.0804 68.5439 43.7752 68.4514 43.3306C67.8697 39.7636 67.2921 36.2091 66.6982 32.6461C66.6098 32.2953 66.7433 31.8851 67.0822 31.7331C67.5221 31.5614 67.974 31.4265 68.4341 31.2753C68.7972 31.156 69.2447 31.3753 69.3695 31.7549C69.5424 32.2815 69.6711 32.8361 69.836 33.3788C70.0663 33.0998 70.1513 32.7463 70.3209 32.4463ZM24.5587 45.758C25.1682 45.4086 25.8823 45.2961 26.5239 45.0445C26.8832 44.8723 27.3631 44.9859 27.5483 45.3457C27.7095 45.6725 27.7211 46.0351 27.7934 46.3776C28.3311 49.6878 28.8686 52.9978 29.4183 56.3038C29.4987 56.671 29.3249 57.1214 28.9455 57.2325C28.2918 57.4472 27.6421 57.6743 26.9683 57.8686C26.5406 57.9547 26.081 57.5767 26.0572 57.1367C25.5037 53.6964 24.9299 50.276 24.3763 46.8355C24.2838 46.4724 24.2439 46.0242 24.5587 45.758ZM63.7852 33.047C61.8688 33.2967 59.9483 33.6563 58.1806 34.4405C56.6148 35.1857 55.2138 36.4736 54.6557 38.1628C53.8508 40.408 54.1672 42.9632 55.2141 45.0885C55.7336 46.098 56.5476 47.0245 57.6244 47.4033C58.6285 47.7654 59.7341 47.497 60.6503 47.0197C61.9175 46.3048 62.778 45.0455 63.4004 43.7556C63.5855 44.156 63.6255 44.6042 63.7825 45.0003C63.9314 45.3718 64.387 45.6156 64.7542 45.4678L65.9891 45.0621C66.3523 44.9428 66.5424 44.5007 66.4499 44.1375C65.8802 40.648 65.3144 37.1708 64.7367 33.6976C64.6725 33.2574 64.213 32.9607 63.7852 33.047ZM62.2784 39.932C62.0959 41.0095 61.6915 42.0649 61.1621 43.0256C60.8471 43.5361 60.4148 44.0987 59.7816 44.1712C59.1602 44.2397 58.6806 43.7189 58.3745 43.236C57.6213 41.964 57.4089 40.3786 57.7813 38.9404C57.9392 38.2778 58.3472 37.6826 58.9204 37.3043C59.7316 36.7935 60.7001 36.5975 61.6401 36.56L61.7046 36.5932C61.9456 37.6942 62.0858 38.815 62.2784 39.932ZM41.3131 44.7849C40.8986 43.5644 40.1494 42.386 39.0003 41.746C38.206 41.2879 37.2257 41.2437 36.3824 41.5342C34.962 41.9468 33.8718 43.0783 33.1486 44.3468C32.9788 44.6062 32.91 44.9273 32.7041 45.1577C32.5713 44.7535 32.4749 44.3375 32.3259 43.9252C32.2134 43.5415 31.7536 43.3263 31.3905 43.4456L30.1556 43.8513C29.7684 43.9786 29.5662 44.4249 29.6667 44.8124C30.5132 49.9611 31.3478 55.1136 32.1943 60.2623C32.2342 60.7511 32.7745 61.0892 33.2305 60.9258C33.9044 60.6908 34.6145 60.5253 35.2481 60.2085C35.7325 59.8866 35.5152 59.2661 35.4511 58.7852C35.2907 57.644 35.07 56.5226 34.8329 55.393C37.3706 55.0748 40.0383 53.8458 41.2183 51.4365C42.144 49.3553 42.0937 46.9162 41.3131 44.7849ZM38.3298 47.1352C38.6274 48.2856 38.6019 49.5557 38.0967 50.6306C37.4099 51.9282 35.8401 52.2945 34.4968 52.3697C34.4606 52.3408 34.4 52.2793 34.3759 52.2466C34.2196 51.1177 33.9624 50.0082 33.8586 48.8756C34.1664 47.5264 34.6153 46.117 35.5844 45.1068C35.9519 44.7555 36.5611 44.6096 37.0087 44.9103C37.7626 45.4088 38.1087 46.299 38.3298 47.1352Z" fill="#107BD4" stroke="#107BD4" stroke-width="0.101"/>
</g>
</g>
<defs>
<linearGradient id="paint0_linear_1108_244" x1="104.771" y1="10.5452" x2="113.419" y2="36.8692" gradientUnits="userSpaceOnUse">
<stop stop-color="#F7E830"/>
<stop offset="1" stop-color="#FDCB06"/>
</linearGradient>
<radialGradient id="paint1_radial_1108_244" cx="0" cy="0" r="1" gradientUnits="userSpaceOnUse" gradientTransform="translate(108.582 22.5962) rotate(-18.1874) scale(22.281 22.5375)">
<stop offset="0.596" stop-color="#F29405"/>
<stop offset="0.736" stop-color="#F7D01E"/>
<stop offset="1" stop-color="#FDCB06"/>
</radialGradient>
<linearGradient id="paint2_linear_1108_244" x1="112.324" y1="9.11662" x2="112.741" y2="10.3607" gradientUnits="userSpaceOnUse">
<stop stop-color="#FADA1C"/>
<stop offset="1" stop-color="#FDCB06"/>
</linearGradient>
<linearGradient id="paint3_linear_1108_244" x1="97.8082" y1="13.819" x2="98.2102" y2="15.0681" gradientUnits="userSpaceOnUse">
<stop stop-color="#FADA1C"/>
<stop offset="1" stop-color="#FDCB06"/>
</linearGradient>
<clipPath id="clip0_1108_244">
<rect width="125.055" height="33.348" fill="white" transform="translate(0 39.0327) rotate(-18.1874)"/>
</clipPath>
</defs>
</svg>
