<svg width="266" height="267" viewBox="0 0 266 267" fill="none" xmlns="http://www.w3.org/2000/svg">
<g id="Frame 58">
<rect y="66.1694" width="209.748" height="210.829" rx="20" transform="rotate(-18.3921 0 66.1694)" fill="white"/>
<rect x="3.16109" y="67.7529" width="204.748" height="205.829" rx="17.5" transform="rotate(-18.3921 3.16109 67.7529)" stroke="rgba(222,44,109,1)" stroke-opacity="0.2" stroke-width="5"/>
<path id="Vector" d="M96.0082 122.489C96.5216 119.083 91.9175 121.576 91.9175 121.576C90.169 122.178 90.1099 124.553 89.9552 125.279L88.2514 137.47C87.8467 139.527 87.0869 147.996 86.5607 149.993C85.9008 148.37 84.8826 145.021 84.6436 144.229C83.7779 141.028 83.171 138.58 82.5191 135.609C81.9942 133.3 81.6172 130.638 80.3989 128.569C79.6213 127.289 79.138 127.354 77.0759 127.829C74.9234 128.334 74.5418 131.829 74.335 133.482C73.6041 139.586 72.5304 145.674 72.1122 151.805C71.9874 153.598 71.7118 155.442 71.5464 157.214C71.3744 159.359 71.2522 161.453 71.0095 163.588C70.7376 165.834 69.9875 173.156 69.8568 175.421C69.6979 177.898 70.1175 179.705 73.7039 178.369C74.2767 178.172 75.5842 177.856 76.5721 175.632C77.3525 173.884 77.1692 172.568 77.2612 170.484C77.6176 163.096 77.976 158.162 78.5942 150.751C78.6481 150.026 78.6497 147.974 78.7962 146.343C79.4597 148.368 79.9563 150.888 80.3542 152.534C81.8804 158.534 83.4847 164.272 84.96 170.222C85.1689 171.025 85.2788 172.03 85.889 172.627C86.4992 173.224 87.4657 173.093 88.2203 172.934C91.2385 172.299 91.043 170.752 91.2641 168.456C91.4673 166.401 91.4527 164.791 91.555 162.738C91.8705 156.407 92.3274 150.094 93.0564 143.788C93.2434 142.176 93.4407 140.595 93.6983 138.992C94.1655 136.04 94.4432 133.32 94.9378 130.055C95.3397 127.697 95.6184 125.078 96.0082 122.489ZM200.733 103.962C199.252 100.738 195.25 103.999 192.683 105.455C191.72 105.988 188.761 107.679 185.352 109.627C183.907 105.919 184.226 106.65 183.409 104.375C182.18 101.098 181.109 98.5743 179.924 95.7195C179.172 93.9265 178.02 91.4637 174.87 93.0864C171.197 94.9561 171.227 97.0987 170.999 99.7672C170.397 106.736 170.498 106.735 169.772 114.519C169.707 115.113 169.523 118.204 169.529 118.807C169.419 118.879 169.198 119.022 168.928 119.216C167.785 119.912 166.392 120.762 164.858 121.694L164.836 121.533C164.172 118.331 163.598 115.097 162.964 111.884C162.394 108.953 161.242 104.236 160.611 101.325C159.937 98.1934 156.461 99.4574 156.461 99.4574C154.279 100.074 153.683 100.986 152.927 103.197C151.641 107.003 149.955 111.216 148.622 115.375C146.19 122.906 144.457 128.548 142.458 135.964C141.883 138.113 140.985 141.382 140.132 143.997C138.363 142.285 136.671 140.311 135.073 138.507C132.771 135.935 131.195 134.392 129.908 132.615C128.765 131.058 129.346 130.589 130.3 129.15C133.065 125.036 136.613 121.629 139.51 117.604C141.56 114.745 144.081 111.489 146.05 108.591C146.05 108.591 147.277 107.16 147.728 105.727C148.286 103.92 144.784 103.444 144.784 103.444C143.003 103.754 142.203 104.467 141.213 105.413C140.194 106.369 139.051 108.142 138.305 109.307C136.645 111.829 134.495 114.89 132.865 117.402C130.857 120.482 129.443 122.449 127.04 125.261L130.763 111.197C132.157 107.118 125.214 108.499 123.852 112.769C122.546 116.616 121.87 119.842 120.983 123.242C118.819 131.354 117.553 139.526 116.4 148.029C115.966 151.274 115.603 154.628 115.32 157.92C115.194 159.511 114.512 163.311 117.068 162.802C122.511 161.668 122.506 158.911 122.657 155.529C122.899 149.963 123.221 148.843 123.412 145.38C123.603 142.018 123.898 140.033 124.384 137.04C124.404 136.999 124.579 136.233 124.579 136.233C124.996 136.661 128.416 141.404 128.834 141.933C130.903 144.416 135.1 150.438 137.231 153.102C138.884 155.358 139.344 156.008 142.719 154.745C144.397 154.133 144.893 153.223 145.284 150.734C145.674 148.245 147.413 137.622 147.413 137.622C148.777 136.884 150.733 135.807 152.006 135.099C152.237 134.986 152.738 134.679 153.44 134.269C153.932 134.032 154.323 133.797 154.624 133.593C154.654 133.582 154.654 133.582 154.673 133.542C155.907 132.814 157.481 131.902 159.196 130.909C159.434 132.677 159.661 136.668 159.771 137.673C159.771 137.673 160.522 147.102 163.571 146.557C165.473 146.205 166.304 145.583 166.304 145.583C169.546 144.029 168.043 139.468 168.043 139.468L165.834 127.076C167.067 126.349 168.3 125.621 169.514 124.935L170.152 139.717C170.231 141.809 170.648 144.39 174.054 143.217C176.88 142.413 176.46 140.606 176.46 140.606C176.427 140.315 176.195 132.49 175.868 129.777C175.671 128.029 175.528 123.402 175.461 121.542C176.814 120.773 177.827 120.189 178.309 119.922C178.88 119.625 179.984 119.009 181.438 118.239C181.947 119.814 182.722 121.969 182.856 122.259C184.823 126.896 186.159 131.953 188.759 136.272C189.168 136.972 189.801 137.83 190.766 137.498C191.911 137.104 192.232 136.859 193.406 136.354C196.8 134.849 194.955 131.548 193.978 129.396C192.888 127.013 191.933 125.021 190.752 122.669C189.787 120.747 188.695 118.163 187.568 114.986L187.547 114.926C192.943 111.991 198.761 108.811 199.614 108.35C200.926 107.461 202.173 107.166 200.733 103.962ZM158.14 125.688C158.151 125.718 158.121 125.729 158.131 125.759C154.422 128.011 150.943 130.15 148.999 131.358C149.898 127.113 154.772 111.105 155.672 109.114C156.254 113.353 157.525 121.157 158.14 125.688ZM179.553 112.666L179.626 112.876C177.821 113.901 176.136 114.885 174.782 115.654C174.985 110.269 174.906 103.771 175.037 100.429C175.703 102.655 178.898 110.469 179.553 112.666ZM118.455 117.856C118.675 116.536 119.275 113.873 117.297 113.612C116.137 113.474 114.707 113.63 113.858 114.494C113.169 115.235 112.836 116.325 112.694 117.283L109.731 129.638C109.173 131.445 108.8 133.592 106.742 134.569C105.377 135.207 104.145 134.959 103.74 133.685C103.325 132.382 103.489 130.408 103.679 129.098C104.269 125.329 104.108 124.174 104.649 120.456C105.17 116.879 99.8075 117.951 99.2972 120.583C98.9311 122.458 98.1972 126.007 98.147 127.134C98.0446 129.188 95.5793 139.657 99.1005 142.245C103.44 145.057 109.368 136.222 107.68 144.64C106.3 151.405 105.328 155.339 104.225 161.538C103.975 162.869 103.574 164.251 103.819 165.647C104.159 167.616 106.711 166.703 107.806 166.259C109.713 165.434 110.337 164.21 110.51 162.166C110.611 161.089 110.791 159.749 110.892 158.671C111.843 149.093 113.409 140.515 115.659 130.793C116.736 126.184 117.728 122.21 118.455 117.856Z" fill="#FC2779"/>
</g>
</svg>
