<svg width="141" height="86" viewBox="0 0 141 86" fill="none" xmlns="http://www.w3.org/2000/svg">
<g id="Tata_CLiQ" clip-path="url(#clip0_1108_218)">
<path id="polygon951" d="M73.75 17.1445L84.7848 13.4847L85.913 16.8865L82.6425 17.9712L85.4063 26.3043L80.9265 27.7901L78.1627 19.457L74.8782 20.5463L73.75 17.1445Z" fill="black"/>
<path id="polygon953" d="M92.6451 16.0253L92.4366 23.9726L87.8725 25.4863L88.5761 12.2273L93.6349 10.5495L102.128 20.7584L97.5892 22.2637L92.6451 16.0253Z" fill="black"/>
<path id="path984" d="M68.9498 23.8852L68.7413 31.8325L64.1772 33.3462L64.8808 20.0871L69.9396 18.4093L78.4324 28.6183L73.8939 30.1235L68.9498 23.8852Z" fill="black"/>
<path id="rect922" d="M35.613 30.1329L8.2396 39.2116C3.74509 40.7022 1.29461 45.5078 2.7663 49.9452L11.7295 76.9704C13.2012 81.4077 18.0378 83.7965 22.5323 82.3058L49.9057 73.2271C54.4002 71.7365 56.8507 66.9309 55.379 62.4935L46.4158 35.4683C44.9441 31.031 40.1075 28.6422 35.613 30.1329Z" fill="#AB1E40"/>
<path id="path306" d="M130.319 32.2972C128.902 27.8025 123.928 25.2601 119.343 26.6862C114.65 28.1455 111.937 33.2336 113.358 37.9123C114.687 42.2924 119.935 44.928 124.467 43.4908C129.28 41.9643 131.83 37.087 130.319 32.2972ZM134.513 38.9874C135.753 39.582 136.993 40.184 138.241 40.7731C139.053 41.1575 139.46 41.8108 139.477 42.6773C139.496 43.5847 139.039 44.2556 138.223 44.662C137.549 44.9981 136.871 44.9008 136.221 44.5869C135.183 44.0848 134.142 43.5901 133.125 43.0499C132.708 42.8272 132.486 42.8413 132.156 43.238C130.433 45.3121 128.264 46.7508 125.681 47.5779C119.755 49.4734 113.05 46.704 110.152 41.2675C106.624 34.6489 109.778 26.7266 115.871 23.5642C122.287 20.2338 130.284 22.6343 133.551 28.9602C135.101 31.9602 135.499 35.1181 134.63 38.4181C134.589 38.5715 134.566 38.7294 134.513 38.9874Z" fill="black"/>
<path id="path310" d="M64.3797 54.3716C64.981 55.9751 65.6643 57.5138 66.6909 58.8895C68.2831 61.0224 70.4354 61.6896 72.9904 61.1165C74.0228 60.8854 75.0352 60.4992 76.0051 60.0675C77.6004 59.3559 78.5777 58.0339 79.3968 56.543C79.6858 56.0149 80.181 55.4883 80.7121 55.2241C81.4159 54.8755 82.1608 55.1216 82.7346 55.6975C83.3357 56.3005 83.4357 57.0012 83.1337 57.7783C82.3311 59.8486 80.9076 61.4183 79.0702 62.6373C76.4326 64.3883 73.5229 65.2834 70.3582 65.2433C67.5274 65.2063 65.173 64.0561 63.4568 61.8737C60.4998 58.1123 59.0057 53.7893 59.1812 48.998C59.335 44.8054 61.7033 42.0488 65.451 40.3049C67.4578 39.3714 69.5435 38.822 71.7544 38.8123C73.6262 38.8037 75.3665 39.2761 76.923 40.3169C77.5099 40.7111 78.0044 41.1903 78.0723 41.9444C78.211 43.4812 76.6487 44.5495 75.1989 43.9133C74.5038 43.6081 73.8307 43.2347 73.1088 43.0107C70.4591 42.1876 66.7289 43.3044 64.9366 45.4261C63.5603 47.0551 63.3814 48.9743 63.6581 50.9546C63.8193 52.1048 64.1347 53.2337 64.3797 54.3716Z" fill="black"/>
<path id="path314" d="M90.9617 54.5588L91.8415 54.267C94.3972 53.4194 96.9491 52.564 99.5084 51.7271C100.479 51.4091 101.279 51.6394 101.809 52.3359C102.325 53.0111 102.406 53.8799 101.917 54.5808C101.695 54.9002 101.34 55.2173 100.98 55.3407C97.3126 56.593 93.638 57.826 89.9515 59.019C88.8111 59.3869 87.8305 58.8177 87.4511 57.6778C85.2308 51.0033 83.0165 44.3268 80.8085 37.6495C80.4059 36.4357 80.9961 35.2783 82.179 34.8963C83.3623 34.5155 84.5059 35.1018 84.9112 36.3237C86.8346 42.1079 88.7511 47.893 90.6696 53.6775L90.9617 54.5588Z" fill="black"/>
<path id="path334" d="M106.988 43.7122C107.702 45.8658 108.427 48.0159 109.127 50.1754C109.619 51.6935 108.92 52.9259 107.441 53.2043C106.657 53.3516 105.749 52.9682 105.35 52.2954C105.199 52.0426 105.073 51.7659 104.98 51.4849C103.576 47.2667 102.177 43.0454 100.778 38.8256C100.5 37.9896 100.407 37.1781 101.03 36.4201C102.037 35.1984 103.892 35.3621 104.621 36.7498C104.749 36.9922 104.849 37.2514 104.935 37.5114C105.626 39.5772 106.309 41.644 106.994 43.7102L106.988 43.7122Z" fill="black"/>
<path id="path338" d="M102.819 29.1095C103.889 29.6376 104.318 30.9307 103.775 31.9919C103.234 33.0554 101.924 33.4898 100.856 32.9601L97.4967 31.302C96.4275 30.7739 95.999 29.482 96.5392 28.4188C97.0821 27.3561 98.3907 26.9221 99.4587 27.4506L102.819 29.1095Z" fill="#AB1E40"/>
<path id="path306-2" d="M36.8323 52.841C35.2943 47.9637 29.8969 45.2048 24.922 46.7523C19.8296 48.3358 16.8854 53.8571 18.4269 58.9341C19.8696 63.6872 25.5637 66.5471 30.482 64.9875C35.7053 63.3311 38.4722 58.0385 36.8323 52.841ZM41.3838 60.1008C42.7288 60.746 44.0749 61.3992 45.4292 62.0385C46.3101 62.4555 46.7515 63.1644 46.7703 64.1048C46.791 65.0895 46.2942 65.8174 45.4091 66.2584C44.678 66.6231 43.9417 66.5176 43.2369 66.1769C42.1102 65.6321 40.9805 65.0953 39.8771 64.5091C39.4242 64.2674 39.1832 64.2828 38.8253 64.7133C36.9557 66.9639 34.6028 68.5251 31.7993 69.4226C25.3688 71.4795 18.093 68.4743 14.9486 62.575C11.1199 55.3929 14.5421 46.7961 21.1539 43.3645C28.1164 39.7506 36.7943 42.3554 40.3399 49.2199C42.0213 52.4753 42.4537 55.902 41.5104 59.483C41.466 59.6494 41.4404 59.8208 41.3838 60.1008Z" fill="white"/>
<path id="path995" d="M50.0781 24.9956L61.1129 21.3358L62.2411 24.7375L58.9707 25.8222L61.7344 34.1554L57.2546 35.6412L54.4908 27.308L51.2064 28.3974L50.0781 24.9956Z" fill="black"/>
</g>
<defs>
<clipPath id="clip0_1108_218">
<rect width="132.163" height="46.4357" fill="white" transform="translate(0 41.605) rotate(-18.3487)"/>
</clipPath>
</defs>
</svg>
