<svg width="41" height="12" viewBox="0 0 41 12" fill="none" xmlns="http://www.w3.org/2000/svg">
<path fill-rule="evenodd" clip-rule="evenodd" d="M18.6981 0.0622481H17.7598V0.0899139C17.7394 0.78156 17.7462 1.47321 17.7598 2.15793V7.8156C17.651 8.90839 17.0459 9.82137 15.7812 9.86287C15.2107 9.85318 14.817 9.7522 14.5519 9.67681C14.4023 9.61664 14.2527 9.53503 14.061 9.4133C13.7686 9.91128 13.483 10.4162 13.1906 10.9142C13.1961 10.9142 13.2015 10.9149 13.2063 10.9156C13.2029 10.9197 13.2002 10.9239 13.1974 10.928C15.5092 12.9822 18.5349 11.6888 19.3984 9.48246C19.9492 8.07842 19.7724 1.82594 19.6636 0.0276658L18.6981 0.0622481ZM0 11.6058V11.8479L2.22337 11.9171L3.09368 9.9597L8.53313 9.98045L9.36264 11.9793L11.5452 11.8271L5.72501 0.318157L0 11.6058ZM4.16797 7.97467L5.63662 4.42653L7.45204 7.97467H4.16797ZM34.894 0C31.6372 0 28.999 2.68358 28.999 5.99657C28.999 9.30955 31.6372 11.9931 34.894 11.9931C38.1509 11.9931 40.7958 9.30955 40.7958 5.99657C40.7958 2.68358 38.1509 0 34.894 0ZM34.894 9.94586C32.7522 9.94586 31.0116 8.17525 31.0116 5.99657C31.0116 3.81788 32.7522 2.04727 34.894 2.04727C37.0358 2.04727 38.7764 3.81788 38.7764 5.99657C38.7764 8.17525 37.0426 9.94586 34.894 9.94586Z" fill="white"/>
<path d="M23.7842 0.0275879H25.6132V12H23.7842V0.0275879Z" fill="white"/>
</svg>
