<svg width="40" height="14" viewBox="0 0 40 14" fill="none" xmlns="http://www.w3.org/2000/svg">
<path d="M11.5254 0.700733C11.9573 -0.187585 10.558 0.0622541 10.558 0.0622541C10.057 0.0622541 9.83242 0.709986 9.72876 0.895052L8.21716 4.08744C7.93212 4.61488 6.99061 6.87269 6.67965 7.37237C6.65374 6.86344 6.68829 5.84557 6.69693 5.60499C6.75739 4.64264 6.81786 3.91163 6.91287 3.03257C6.98197 2.34782 7.12017 1.5798 6.99061 0.895052C6.90423 0.4694 6.77467 0.44164 6.20458 0.376867C5.60858 0.312094 5.2026 1.23742 5.00394 1.67233C4.27837 3.28241 3.46642 4.85547 2.8186 6.50256C2.62857 6.98373 2.39535 7.4649 2.19668 7.93682C1.96346 8.51052 1.74752 9.07498 1.49703 9.63943C1.22926 10.2316 0.3914 12.1748 0.158182 12.7856C-0.100949 13.4518 -0.152775 13.9885 0.88375 13.9607C1.04787 13.9607 1.41065 13.9977 1.85981 13.4796C2.21396 13.0724 2.28306 12.693 2.49036 12.1286C3.23321 10.1299 3.76011 8.80663 4.57205 6.82642C4.64979 6.6321 4.83118 6.06765 5.01257 5.63275C5.00394 6.25272 4.90892 6.99298 4.86573 7.48341C4.72753 9.27855 4.63251 11.0089 4.48567 12.7856C4.4684 13.0261 4.40793 13.313 4.51159 13.5351C4.61524 13.7572 4.87437 13.8127 5.08168 13.8404C5.9109 13.9515 5.99727 13.5073 6.2564 12.8966C6.48962 12.3506 6.62783 11.9065 6.83513 11.3513C7.47432 9.63943 8.14806 7.94607 8.89091 6.28048C9.08093 5.85483 9.27096 5.43843 9.47827 5.02203C9.85833 4.254 10.1693 3.53224 10.5839 2.68094C10.8949 2.07022 11.1972 1.37622 11.5254 0.700733ZM39.9867 5.52171C39.8916 4.49459 38.5787 5.01277 37.7927 5.17008C37.499 5.2256 36.592 5.41067 35.5469 5.62349C35.5037 4.46683 35.521 4.69816 35.5123 3.99491C35.4864 2.97705 35.4346 2.18126 35.3828 1.28369C35.3482 0.719239 35.2705 -0.0672922 34.3203 0.0807608C33.2147 0.24732 33.0333 0.839532 32.7396 1.55204C31.9709 3.41195 31.9968 3.42121 31.1244 5.49395C31.0553 5.65125 30.7357 6.48405 30.6838 6.65061C30.6493 6.65986 30.5802 6.67837 30.4938 6.70613C30.1397 6.78941 29.7078 6.8912 29.2327 7.00224L29.2413 6.95597C29.3536 6.01213 29.4918 5.06829 29.6128 4.12446C29.7251 3.2639 29.846 1.8574 29.941 0.996838C30.0447 0.0715076 29.0427 0.0900139 29.0427 0.0900139C28.4294 0.0530007 28.1962 0.24732 27.8075 0.784012C27.1424 1.70934 26.3391 2.7087 25.6308 3.72656C24.3438 5.56797 23.4023 6.95597 22.2362 8.80663C21.8993 9.34332 21.381 10.1576 20.9319 10.7961C20.6295 10.1576 20.3704 9.45436 20.1199 8.80663C19.7571 7.8813 19.4894 7.3076 19.3166 6.69688C19.1611 6.16018 19.3512 6.08616 19.7226 5.7808C20.7937 4.91099 22.0029 4.30952 23.0999 3.47672C23.8773 2.88451 24.8102 2.22753 25.5703 1.61681C25.5703 1.61681 26.0108 1.33921 26.2527 0.987585C26.555 0.543426 25.6999 0.0807608 25.6999 0.0807608C25.2162 -0.00251902 24.9484 0.117774 24.6115 0.284334C24.266 0.450893 23.8169 0.830279 23.5232 1.08012C22.8754 1.61681 22.0548 2.25529 21.4156 2.79198C20.6296 3.44897 20.094 3.85611 19.2302 4.40206L21.4242 0.885799C22.1411 -0.104305 20.2409 -0.381905 19.5153 0.663719C18.8415 1.5983 18.3837 2.42185 17.8568 3.27315C16.5871 5.29963 15.5419 7.42789 14.4968 9.65794C14.0994 10.5092 13.7107 11.3976 13.348 12.2766C13.1752 12.7023 12.6656 13.6831 13.3652 13.7849C14.8596 13.9885 15.1014 13.2297 15.4383 12.3136C15.9911 10.8053 16.1725 10.5277 16.5266 9.59316C16.8721 8.68634 17.1226 8.16815 17.5113 7.39087C17.52 7.38162 17.6323 7.1873 17.6323 7.1873C17.7014 7.34461 18.1592 8.97319 18.2196 9.15826C18.5306 10.0373 19.0748 12.0916 19.3857 13.0261C19.6103 13.8034 19.6708 14.0255 20.6468 13.9977C21.1305 13.9885 21.3378 13.7849 21.6574 13.1372C21.977 12.4894 23.3591 9.73196 23.3591 9.73196C23.7737 9.65794 24.3697 9.5469 24.7584 9.47287C24.8275 9.46362 24.983 9.4266 25.1989 9.38034C25.3457 9.36183 25.4667 9.33407 25.5617 9.30631C25.5703 9.30631 25.5703 9.30631 25.579 9.29706C25.959 9.21378 26.4427 9.11199 26.9696 9.00095C26.8746 9.50988 26.5809 10.6295 26.5205 10.9164C26.5205 10.9164 25.8813 13.5813 26.7105 13.7201C27.2288 13.8034 27.4965 13.7109 27.4965 13.7109C28.464 13.5906 28.4812 12.1933 28.4812 12.1933L29.0081 8.5753C29.3882 8.49202 29.7682 8.40874 30.1397 8.33471L28.9995 12.4617C28.8354 13.0446 28.7144 13.7942 29.6905 13.7942C30.4852 13.8404 30.537 13.3037 30.537 13.3037C30.5543 13.2205 31.1848 11.0459 31.3403 10.2687C31.444 9.76898 31.8154 8.48277 31.9622 7.96458C32.3768 7.8813 32.6878 7.81653 32.8346 7.78877C33.0074 7.76101 33.3443 7.69623 33.7848 7.62221C33.7761 8.10338 33.7848 8.76962 33.7934 8.86215C33.8884 10.3242 33.7848 11.8417 34.0698 13.276C34.113 13.5073 34.1994 13.8034 34.4758 13.8034C34.804 13.8034 34.9077 13.7664 35.2532 13.7386C36.2552 13.6461 36.0738 12.5635 36.0133 11.8787C35.9442 11.12 35.8751 10.4815 35.7801 9.72271C35.7024 9.10274 35.6505 8.28845 35.6419 7.3076V7.28909C37.2831 6.99298 39.0538 6.66912 39.3129 6.62285C39.7275 6.50256 40.073 6.53957 39.9867 5.52171ZM27.1597 7.4649C27.1597 7.47415 27.151 7.47415 27.151 7.48341C26.0022 7.75175 24.9225 8.01085 24.3179 8.1589C24.9225 7.07626 27.5829 3.13435 27.9889 2.67169C27.7643 3.89312 27.4015 6.16019 27.1597 7.4649ZM33.7934 5.91035V5.97512C33.2406 6.08616 32.7223 6.1972 32.3077 6.28048C32.8346 4.81846 33.3874 3.02331 33.7157 2.11649C33.6898 2.79198 33.8193 5.24411 33.7934 5.91035ZM17.6841 1.55204C17.8568 1.20966 18.2455 0.534173 17.7618 0.27508C17.4768 0.127027 17.0967 0.0344943 16.803 0.191801C16.5612 0.3306 16.3798 0.598946 16.2589 0.848785L14.4104 3.96715C14.1081 4.41131 13.823 4.96651 13.2098 5.04053C12.8038 5.0868 12.5101 4.90173 12.5187 4.5131C12.5274 4.1152 12.7433 3.58776 12.9074 3.24539C13.3912 2.26454 13.4516 1.93142 13.9181 0.959825C14.3672 0.0252409 12.8988 -0.187585 12.536 0.487906C12.2769 0.969079 11.7759 1.8759 11.6636 2.18126C11.4563 2.73646 9.90152 5.38291 10.5753 6.42853C11.439 7.61295 13.7367 5.74379 12.5619 7.89981C11.6118 9.63018 11.0158 10.6203 10.1866 12.2211C10.0052 12.5635 9.78059 12.9058 9.72013 13.313C9.63375 13.8867 10.368 13.8774 10.6875 13.8589C11.249 13.8127 11.5168 13.5351 11.7413 12.9891C11.8623 12.7023 12.0264 12.3506 12.1473 12.0638C13.2357 9.51914 14.3931 7.30759 15.827 4.84621C16.5094 3.6803 17.114 2.68094 17.6841 1.55204Z" fill="white"/>
</svg>
