<svg width="51" height="10" viewBox="0 0 51 10" fill="none" xmlns="http://www.w3.org/2000/svg">
<path d="M18.0847 0.500523C18.4626 -0.133989 17.2382 0.0444672 17.2382 0.0444672C16.7999 0.0444672 16.6034 0.507133 16.5127 0.639323L15.19 2.9196C14.9406 3.29634 14.1168 4.90906 13.8447 5.26598C13.822 4.90245 13.8523 4.17541 13.8598 4.00356C13.9127 3.31617 13.9656 2.79402 14.0488 2.16612C14.1092 1.67702 14.2302 1.12843 14.1168 0.639323C14.0412 0.335285 13.9278 0.315457 13.429 0.26919C12.9075 0.222924 12.5523 0.883874 12.3784 1.19452C11.7436 2.34458 11.0331 3.46819 10.4663 4.64468C10.3 4.98838 10.0959 5.33207 9.9221 5.66916C9.71803 6.07895 9.52908 6.48213 9.3099 6.88531C9.0756 7.30831 8.34248 8.69631 8.13841 9.13254C7.91167 9.60842 7.86632 9.99177 8.77328 9.97194C8.91688 9.97194 9.23432 9.99838 9.62733 9.62825C9.93721 9.33743 9.99768 9.06644 10.1791 8.66326C10.8291 7.23561 11.2901 6.29045 12.0005 4.87602C12.0686 4.73722 12.2273 4.33404 12.386 4.02339C12.3784 4.46623 12.2953 4.99499 12.2575 5.34529C12.1366 6.62754 12.0535 7.86351 11.925 9.13254C11.9098 9.30439 11.8569 9.50928 11.9476 9.66791C12.0383 9.82654 12.2651 9.86619 12.4465 9.88602C13.172 9.96534 13.2476 9.64808 13.4744 9.21185C13.6784 8.82189 13.7993 8.50464 13.9807 8.10807C14.54 6.88531 15.1296 5.67577 15.7795 4.48606C15.9458 4.18202 16.1121 3.88459 16.2935 3.58716C16.626 3.03857 16.8981 2.52303 17.2609 1.91496C17.533 1.47873 17.7975 0.983017 18.0847 0.500523ZM42.9883 3.94408C42.9052 3.21042 41.7564 3.58055 41.0686 3.69291C40.8116 3.73257 40.018 3.86476 39.1035 4.01678C39.0657 3.19059 39.0808 3.35583 39.0733 2.85351C39.0506 2.12646 39.0053 1.55804 38.9599 0.916922C38.9297 0.513742 38.8617 -0.0480658 38.0303 0.0576863C37.0629 0.176657 36.9041 0.599666 36.6472 1.1086C35.9745 2.43711 35.9972 2.44372 35.2338 3.92425C35.1734 4.03661 34.8937 4.63146 34.8484 4.75044C34.8181 4.75705 34.7577 4.77026 34.6821 4.79009C34.3722 4.84958 33.9943 4.92228 33.5786 5.0016L33.5862 4.96855C33.6844 4.29438 33.8054 3.62021 33.9112 2.94604C34.0094 2.33136 34.1152 1.32671 34.1984 0.712027C34.2891 0.0510768 33.4123 0.0642957 33.4123 0.0642957C32.8757 0.0378576 32.6717 0.176657 32.3316 0.560009C31.7496 1.22096 31.0467 1.93479 30.4269 2.66183C29.3008 3.97712 28.477 4.96855 27.4566 6.29045C27.1619 6.6738 26.7084 7.25544 26.3154 7.71149C26.0509 7.25544 25.8241 6.75312 25.6049 6.29045C25.2875 5.6295 25.0532 5.21971 24.902 4.78348C24.766 4.40013 24.9323 4.34726 25.2573 4.12914C26.1945 3.50785 27.2526 3.07823 28.2124 2.48337C28.8927 2.06037 29.7089 1.59109 30.374 1.15486C30.374 1.15486 30.7595 0.956579 30.9711 0.705418C31.2356 0.388161 30.4874 0.0576863 30.4874 0.0576863C30.0642 -0.0017993 29.8299 0.0841243 29.5351 0.203095C29.2328 0.322067 28.8398 0.593056 28.5828 0.771513C28.0159 1.15486 27.2979 1.61092 26.7386 1.99427C26.0509 2.46355 25.5823 2.75436 24.8265 3.14433L26.7462 0.632713C27.3735 -0.0745038 25.7107 -0.272789 25.0759 0.474085C24.4864 1.14165 24.0858 1.72989 23.6247 2.33797C22.5137 3.78545 21.5992 5.30563 20.6847 6.89853C20.337 7.5066 19.9969 8.14111 19.6795 8.76902C19.5283 9.07305 19.0824 9.77366 19.6946 9.84636C21.0021 9.99177 21.2137 9.44979 21.5085 8.79545C21.9922 7.7181 22.1509 7.51982 22.4608 6.85226C22.7631 6.20453 22.9823 5.83439 23.3224 5.2792C23.33 5.27259 23.4282 5.13379 23.4282 5.13379C23.4887 5.24615 23.8893 6.40942 23.9422 6.54161C24.2143 7.16952 24.6904 8.63682 24.9625 9.30438C25.159 9.85958 25.2119 10.0182 26.066 9.99838C26.4892 9.99177 26.6706 9.84636 26.9503 9.3837C27.2299 8.92103 28.4392 6.9514 28.4392 6.9514C28.802 6.89853 29.3235 6.81921 29.6636 6.76634C29.724 6.75973 29.8601 6.73329 30.049 6.70024C30.1775 6.68702 30.2833 6.66719 30.3665 6.64736C30.374 6.64736 30.374 6.64736 30.3816 6.64076C30.7141 6.58127 31.1374 6.50856 31.5984 6.42925C31.5153 6.79277 31.2583 7.59252 31.2054 7.79742C31.2054 7.79742 30.6461 9.70096 31.3717 9.8001C31.8252 9.85958 32.0595 9.79349 32.0595 9.79349C32.906 9.70757 32.9211 8.70953 32.9211 8.70953L33.3821 6.12521C33.7147 6.06573 34.0472 6.00624 34.3722 5.95337L33.3746 8.90121C33.231 9.3176 33.1251 9.85297 33.9792 9.85297C34.6745 9.88602 34.7199 9.50267 34.7199 9.50267C34.735 9.44318 35.2867 7.88995 35.4228 7.33475C35.5135 6.97784 35.8385 6.05912 35.9669 5.68899C36.3297 5.6295 36.6018 5.58323 36.7303 5.56341C36.8815 5.54358 37.1762 5.49731 37.5617 5.44443C37.5541 5.78813 37.5617 6.26401 37.5692 6.33011C37.6524 7.37441 37.5617 8.45837 37.8111 9.48284C37.8489 9.64808 37.9245 9.85958 38.1663 9.85958C38.4535 9.85958 38.5442 9.83315 38.8465 9.81332C39.7233 9.74722 39.5646 8.97391 39.5116 8.48481C39.4512 7.94283 39.3907 7.48677 39.3076 6.94479C39.2396 6.50195 39.1942 5.92032 39.1867 5.21971V5.20649C40.6227 4.99499 42.1721 4.76365 42.3988 4.73061C42.7616 4.64468 43.0639 4.67112 42.9883 3.94408ZM31.7647 5.33207C31.7647 5.33868 31.7571 5.33868 31.7571 5.34529C30.7519 5.53697 29.8072 5.72203 29.2781 5.82779C29.8072 5.05447 32.135 2.23882 32.4903 1.90835C32.2938 2.7808 31.9763 4.40013 31.7647 5.33207ZM37.5692 4.22167V4.26794C37.0855 4.34726 36.6321 4.42657 36.2693 4.48606C36.7303 3.44175 37.214 2.15951 37.5012 1.51178C37.4785 1.99427 37.5919 3.74579 37.5692 4.22167ZM23.4736 1.1086C23.6247 0.864046 23.9649 0.381552 23.5416 0.196486C23.2922 0.0907337 22.9596 0.0246388 22.7027 0.137C22.491 0.236143 22.3323 0.427819 22.2265 0.606275L20.6091 2.83368C20.3446 3.15094 20.0952 3.54751 19.5585 3.60038C19.2033 3.63343 18.9463 3.50124 18.9539 3.22364C18.9615 2.93943 19.1504 2.56269 19.294 2.31814C19.7173 1.61753 19.7702 1.37959 20.1783 0.685589C20.5713 0.0180292 19.2865 -0.133989 18.969 0.348505C18.7423 0.692199 18.3039 1.33993 18.2057 1.55804C18.0243 1.95461 16.6638 3.84493 17.2534 4.59181C18.0092 5.43782 20.0196 4.1027 18.9917 5.64272C18.1603 6.8787 17.6388 7.58591 16.9132 8.72936C16.7545 8.97391 16.558 9.21846 16.5051 9.50928C16.4295 9.91907 17.072 9.91246 17.3516 9.89924C17.8429 9.86619 18.0772 9.66791 18.2737 9.27795C18.3795 9.07305 18.5231 8.82189 18.6289 8.617C19.5812 6.79938 20.594 5.21971 21.8486 3.46158C22.4457 2.62878 22.9748 1.91496 23.4736 1.1086Z" fill="#FC2779"/>
</svg>
