<svg width="62" height="62" viewBox="0 0 62 62" fill="none" xmlns="http://www.w3.org/2000/svg">
<g id="Layer_1">
<g id="Group">
<path id="Vector" d="M23.2887 8.73431H10.1465C9.80196 10.0149 8.79131 11.0254 7.51074 11.37V25.0582C8.79131 25.4028 9.80184 26.4133 10.1465 27.6938H23.2887C20.5723 25.642 18.7815 22.1585 18.7815 18.2141C18.7815 14.2698 20.5723 10.7861 23.2887 8.73431Z" fill="#A5D6A7"/>
<path id="Vector_2" d="M47.7516 8.73425H34.6094C37.3257 10.7861 39.1165 14.2696 39.1165 18.214C39.1165 19.802 38.8267 21.3508 38.271 22.7803C38.7145 22.9085 39.1063 23.1606 39.4215 23.5318L42.9507 27.6937H47.7516C48.0961 26.4131 49.1067 25.4026 50.3873 25.0581V11.3699C49.1067 11.0253 48.0962 10.0148 47.7516 8.73425Z" fill="#A5D6A7"/>
</g>
<path id="Vector_3" d="M59.457 6.9032H56.324V3.77002C56.324 3.23503 55.8902 2.80127 55.3552 2.80127H2.54297C2.00798 2.80127 1.57422 3.23503 1.57422 3.77002V32.6579C1.57422 33.1929 2.00798 33.6267 2.54297 33.6267H5.67603V36.7597C5.67603 37.2947 6.10979 37.7285 6.64478 37.7285H15.1016V45.1007C15.1016 45.8752 15.1856 46.7681 15.8102 47.5196L20.192 52.7764V58.0549C20.192 58.5899 20.6258 59.0236 21.1608 59.0236C21.6958 59.0236 22.1295 58.5899 22.1295 58.0549V52.4256C22.1295 52.1989 22.0501 51.9794 21.9049 51.8054L17.2995 46.2802C17.1097 46.0518 17.0392 45.7322 17.0392 45.1007V37.7285H33.7585C32.355 38.3835 31.0871 39.2757 30.5071 40.9268L29.8344 42.8318C29.6562 43.3363 29.9207 43.8897 30.4252 44.068C30.9298 44.2461 31.483 43.9817 31.6613 43.4771L32.3347 41.5705C32.8007 40.2441 34.039 39.666 35.6109 39.0474L39.1189 37.6607C39.4886 37.5145 39.7315 37.1573 39.7315 36.7597V33.1384C39.7315 32.9153 39.6544 32.6991 39.5134 32.5262L36.7492 29.137C35.9021 28.1022 35.5862 26.46 36.5259 25.5003L37.2411 24.7646C37.3465 24.658 37.4544 24.6147 37.6019 24.6193C37.7472 24.6241 37.8499 24.674 37.9449 24.7856L41.7397 29.2609C41.7525 29.2772 41.7661 29.2928 41.7799 29.3082L44.1096 32.0556C44.1263 32.0752 44.1436 32.0942 44.1618 32.1125C44.729 32.6824 44.982 33.276 44.958 33.9825L44.6113 44.7341C44.5867 45.5215 44.3414 46.1232 43.8411 46.6259L39.8046 50.6591C39.6227 50.8407 39.5205 51.0873 39.5205 51.3444V58.2299C39.5205 58.7649 39.9543 59.1986 40.4893 59.1986C41.0243 59.1986 41.458 58.7649 41.458 58.2299V51.7459L45.2125 47.9946C46.0589 47.144 46.5082 46.0673 46.5478 44.7955L46.7757 37.7285H59.4572C59.9921 37.7285 60.4259 37.2947 60.4259 36.7597V7.87195C60.4259 7.33696 59.9921 6.9032 59.4572 6.9032H59.457ZM7.61353 33.6267H37.7938V35.791H7.61353V33.6267ZM20.7188 18.214C20.7188 12.9868 24.4109 8.73426 28.949 8.73426C33.4871 8.73426 37.1793 12.9868 37.1793 18.214C37.1793 20.1008 36.7 21.9164 35.7941 23.4733L35.139 24.1472C34.7851 24.5085 34.5157 24.9276 34.3285 25.3821C32.8297 26.8729 30.927 27.6938 28.949 27.6938C24.4108 27.6938 20.7188 23.4411 20.7188 18.214ZM23.2884 27.6937H10.1462C9.80169 26.4131 8.79104 25.4026 7.51048 25.0581V11.3699C8.79104 11.0254 9.80157 10.0147 10.1462 8.73414H23.2884C20.572 10.7859 18.7813 14.2695 18.7813 18.2138C18.7813 22.1582 20.572 25.6419 23.2884 27.6937ZM38.2713 22.7803C38.8271 21.3508 39.1168 19.802 39.1168 18.214C39.1168 14.2696 37.3261 10.7861 34.6097 8.73426H47.7519C48.0964 10.0148 49.107 11.0254 50.3876 11.37V25.0582C49.107 25.4027 48.0965 26.4132 47.7519 27.6938H42.951L39.4218 23.5319C39.1065 23.1608 38.7148 22.9085 38.2713 22.7803ZM44.594 29.6312H48.5931C49.1281 29.6312 49.5619 29.1974 49.5619 28.6624C49.5619 27.6731 50.3668 26.868 51.3562 26.868C51.8912 26.868 52.325 26.4343 52.325 25.8993V10.5286C52.325 9.99363 51.8912 9.55988 51.3562 9.55988C50.3668 9.55988 49.5619 8.75497 49.5619 7.76551C49.5619 7.23052 49.1281 6.79676 48.5931 6.79676H9.30497C8.76997 6.79676 8.33622 7.23052 8.33622 7.76551C8.33622 8.75497 7.5313 9.55988 6.54185 9.55988C6.00686 9.55988 5.5731 9.99363 5.5731 10.5286V25.8993C5.5731 26.4343 6.00686 26.868 6.54185 26.868C7.5313 26.868 8.33622 27.673 8.33622 28.6624C8.33622 29.1974 8.76997 29.6312 9.30497 29.6312H34.7397C34.8872 29.883 35.0565 30.1281 35.2486 30.3628L36.3303 31.6892H3.51172V4.73889H54.3865V31.6893H46.2813C46.0873 31.3699 45.8482 31.0647 45.5635 30.7745L44.594 29.6313V29.6312ZM58.4883 35.791H46.8381L46.8944 34.0466C46.8992 33.9048 46.8967 33.7649 46.8886 33.6267H55.3552C55.8902 33.6267 56.324 33.1929 56.324 32.6579V8.8407H58.4883V35.791ZM43.8839 20.9368C45.3852 20.9368 46.6067 19.7153 46.6067 18.214C46.6067 16.7126 45.3853 15.4913 43.8839 15.4913C42.3825 15.4913 41.1612 16.7126 41.1612 18.214C41.1612 19.7153 42.3826 20.9368 43.8839 20.9368ZM43.8839 17.4288C44.3169 17.4288 44.6692 17.7811 44.6692 18.214C44.6692 18.6469 44.3169 18.9993 43.8839 18.9993C43.4509 18.9993 43.0987 18.647 43.0987 18.214C43.0987 17.7809 43.451 17.4288 43.8839 17.4288ZM14.0144 15.4913C12.5131 15.4913 11.2916 16.7126 11.2916 18.214C11.2916 19.7153 12.513 20.9368 14.0144 20.9368C15.5159 20.9368 16.7371 19.7153 16.7371 18.214C16.7371 16.7126 15.5157 15.4913 14.0144 15.4913ZM14.0144 18.9993C13.5814 18.9993 13.2291 18.647 13.2291 18.214C13.2291 17.7809 13.5814 17.4288 14.0144 17.4288C14.4475 17.4288 14.7996 17.7811 14.7996 18.214C14.7996 18.6469 14.4473 18.9993 14.0144 18.9993Z" fill="black"/>
<g id="Group_2">
<path id="Vector_4" d="M43.8838 17.4288C43.4508 17.4288 43.0986 17.7811 43.0986 18.214C43.0986 18.6469 43.4509 18.9993 43.8838 18.9993C44.3167 18.9993 44.6691 18.647 44.6691 18.214C44.6691 17.7809 44.3168 17.4288 43.8838 17.4288Z" fill="#A5F1A8"/>
<path id="Vector_5" d="M14.0148 17.4288C13.5818 17.4288 13.2295 17.7811 13.2295 18.214C13.2295 18.6469 13.5818 18.9993 14.0148 18.9993C14.4478 18.9993 14.8 18.647 14.8 18.214C14.8 17.7809 14.4477 17.4288 14.0148 17.4288Z" fill="#A5F1A8"/>
<path id="Vector_6" d="M54.3865 4.73889H3.51172V31.6893H36.3304L35.2487 30.3629C35.0565 30.1283 34.8874 29.8832 34.7399 29.6313H9.30497C8.76997 29.6313 8.33622 29.1975 8.33622 28.6625C8.33622 27.6732 7.5313 26.8682 6.54185 26.8682C6.00686 26.8682 5.5731 26.4344 5.5731 25.8994V10.5287C5.5731 9.99375 6.00686 9.56 6.54185 9.56C7.5313 9.56 8.33622 8.75509 8.33622 7.76563C8.33622 7.23064 8.76997 6.79688 9.30497 6.79688H48.5931C49.1281 6.79688 49.5619 7.23064 49.5619 7.76563C49.5619 8.75509 50.3668 9.56 51.3562 9.56C51.8912 9.56 52.325 9.99375 52.325 10.5287V25.8994C52.325 26.4344 51.8912 26.8682 51.3562 26.8682C50.3668 26.8682 49.5619 27.6731 49.5619 28.6625C49.5619 29.1975 49.1281 29.6313 48.5931 29.6313H44.594L45.5635 30.7745C45.8483 31.0647 46.0874 31.3699 46.2813 31.6893H54.3865V4.73889Z" fill="#A5F1A8"/>
<path id="Vector_7" d="M28.949 8.73425C24.4108 8.73425 20.7188 12.9868 20.7188 18.214C20.7188 23.4411 24.4109 27.6937 28.949 27.6937C30.927 27.6937 32.8297 26.8729 34.3285 25.382C34.5158 24.9275 34.7851 24.5084 35.139 24.1471L35.7941 23.4732C36.7 21.9163 37.1793 20.1007 37.1793 18.2138C37.1793 12.9867 33.4871 8.73425 28.949 8.73425Z" fill="#A5F1A8"/>
</g>
<path id="Vector_8" d="M7.61328 33.6266H37.7936V35.791H7.61328V33.6266Z" fill="#A5EAA9"/>
<path id="Vector_9" d="M56.3238 32.6579C56.3238 33.1929 55.89 33.6267 55.355 33.6267H46.8884C46.8966 33.7649 46.899 33.9048 46.8942 34.0466L46.8379 35.791H58.4881V8.8407H56.3238V32.6579Z" fill="#A5EAA9"/>
<path id="Vector_10" d="M39.5205 58.2299V51.3443C39.5205 51.0873 39.6227 50.8407 39.8046 50.6591L43.8411 46.6259C44.3413 46.1231 44.5868 45.5214 44.6113 44.7341L44.958 33.9825C44.9819 33.2761 44.7288 32.6823 44.1618 32.1125C44.1436 32.0942 44.1263 32.0752 44.1096 32.0556L41.7798 29.3082C41.766 29.2928 41.7525 29.2771 41.7396 29.2608L37.9448 24.7856C37.85 24.6739 37.7473 24.624 37.6019 24.6193C37.4544 24.6147 37.3465 24.6579 37.241 24.7646L36.5258 25.5003C35.586 26.4599 35.9021 28.1022 36.7491 29.137L39.5133 32.5261C39.6544 32.6991 39.7314 32.9153 39.7314 33.1384V36.7597C39.7314 36.9474 39.6757 37.125 39.5797 37.2768L39.5977 37.3752L39.5091 37.3733C39.4069 37.4978 39.2751 37.5989 39.1187 37.6606L35.6107 39.0474C34.0388 39.6659 32.8005 40.244 32.3345 41.5705L31.6611 43.4771C31.483 43.9817 30.9296 44.2461 30.425 44.0679C29.9205 43.8897 29.6559 43.3363 29.8342 42.8318L30.507 40.9268C31.087 39.2757 32.3549 38.3834 33.7584 37.7284H17.0391V45.1006C17.0391 45.7321 17.1097 46.0518 17.2993 46.2802L21.9047 51.8053C22.0499 51.9795 22.1294 52.1989 22.1294 52.4256V58.0549C22.1294 58.5899 21.6956 59.0236 21.1606 59.0236L40.489 59.1986C39.954 59.1986 39.5202 58.7648 39.5202 58.2299H39.5205Z" fill="#FFCCBC"/>
</g>
</svg>
